<?xml version="1.0" encoding="utf-8"?>
<!-- Generator: Adobe Illustrator 23.0.1, SVG Export Plug-In . SVG Version: 6.00 Build 0)  -->
<svg version="1.1" id="Слой_1" xmlns="http://www.w3.org/2000/svg" xmlns:xlink="http://www.w3.org/1999/xlink" x="0px" y="0px"
	 viewBox="0 0 240.9 155.9" enable-background="new 0 0 240.9 155.9" xml:space="preserve">
<g>
	<path fill="#AC8643" d="M125.5,81.4c0.1,0.9,0.1,1.8,0.1,4.2c0,2.6,0,3.7-0.1,4.5h1.9c-0.1-0.9-0.1-1.9-0.1-4.5
		c0-2.4,0-3.4,0.1-4.2H125.5L125.5,81.4L125.5,81.4z"/>
	<path fill="#AC8643" d="M129.2,87.9c0,1.6,1.2,2.5,3.2,2.5c2.1,0,3.3-0.9,3.3-2.6c0-1.1-0.6-1.8-1.7-2.2c0.9-0.3,1.5-1,1.5-2
		c0-1.5-1.1-2.3-3-2.3c-1.9,0-3,0.9-3,2.4c0,1,0.5,1.6,1.5,2C129.8,86,129.2,86.8,129.2,87.9L129.2,87.9L129.2,87.9z M132.4,82.1
		c0.8,0,1.3,0.6,1.3,1.6c0,1-0.5,1.6-1.2,1.6c-0.8,0-1.3-0.6-1.3-1.6C131.2,82.7,131.7,82.1,132.4,82.1L132.4,82.1L132.4,82.1z
		 M132.4,86.1c0.9,0,1.5,0.7,1.5,1.8c0,1.1-0.5,1.7-1.4,1.7c-0.9,0-1.5-0.7-1.5-1.8C131,86.7,131.5,86.1,132.4,86.1L132.4,86.1
		L132.4,86.1z"/>
	<path fill="#AC8643" d="M136.9,87.9c0,1.6,1.2,2.5,3.2,2.5c2.1,0,3.3-0.9,3.3-2.6c0-1.1-0.6-1.8-1.7-2.2c0.9-0.3,1.5-1,1.5-2
		c0-1.5-1.1-2.3-3-2.3c-1.9,0-3,0.9-3,2.4c0,1,0.5,1.6,1.5,2C137.5,86,136.9,86.8,136.9,87.9L136.9,87.9L136.9,87.9z M140.1,82.1
		c0.8,0,1.3,0.6,1.3,1.6c0,1-0.5,1.6-1.2,1.6c-0.8,0-1.3-0.6-1.3-1.6C138.9,82.7,139.4,82.1,140.1,82.1L140.1,82.1L140.1,82.1z
		 M140.1,86.1c0.9,0,1.5,0.7,1.5,1.8c0,1.1-0.5,1.7-1.4,1.7c-0.9,0-1.5-0.7-1.5-1.8C138.7,86.7,139.3,86.1,140.1,86.1L140.1,86.1
		L140.1,86.1z"/>
	<path fill="#AC8643" d="M148.5,84.5c-1,0-1.6,0.4-2,0.9c0.1-2,0.6-3.3,2-3.3c1.1,0,1.7,1.1,1.7,1.1v-1.6c0,0-0.6-0.3-1.8-0.3
		c-2.2,0-3.8,1.7-3.8,4.7c0,3,1.2,4.4,3.3,4.4c2,0,3.1-1.2,3.1-3.1C151.1,85.5,150.1,84.5,148.5,84.5L148.5,84.5L148.5,84.5z
		 M148.1,89.5c-0.9,0-1.5-0.7-1.6-3.1c0.3-0.4,0.8-0.8,1.4-0.8c0.9,0,1.4,0.6,1.4,1.8C149.4,88.7,148.9,89.5,148.1,89.5L148.1,89.5
		L148.1,89.5z"/>
	<path fill="#AC8643" d="M142.3,56.1c-12.4-12.4-32.5-12.4-44.9,0c-6,6-9.1,13.8-9.3,21.7l0,0c0,0,0,0.1,0,0.1c0,0.3,0,0.7,0,1
		c0-0.1,0-0.3,0-0.4c0,2.7,0.3,5.4,1,8.2c4.4,17,21.7,27.2,38.7,22.8c8-2.1,14.5-7,18.6-13.5h-0.1c-3.8,5.5-9.5,9.7-16.5,11.5
		c-15.5,4-31.3-5.3-35.3-20.8c-0.8-3-1-5.9-0.9-8.8h1.3c-0.1,2.4,0.2,4.8,0.8,7.2c3.6,13.9,17.8,22.2,31.7,18.6
		c5.1-1.3,9.4-4.1,12.6-7.7h0c-4.2,3.9-9.8,6.4-16,6.4c-6.7,0-12.7-2.8-16.9-7.3c-0.1-0.1-0.1-0.1-0.2-0.2c-0.1-0.1-0.1-0.2-0.2-0.2
		c-2.4-2.7-4.2-5.9-5.2-9.7c-0.6-2.4-0.8-4.7-0.7-7.1h1.5c-0.1,2,0.1,4,0.6,6c2.8,10.7,13.7,17.1,24.3,14.3c1.9-0.5,3.6-1.2,5.1-2.2
		h-0.4c-2.1,0.9-4.4,1.4-6.9,1.4c-9.6,0-17.3-7.7-17.3-17.3c0-0.8,0.1-1.5,0.2-2.3h4.5h18.7v0h6.1v0h8.6h5.6h0
		C151.4,70,148.4,62.1,142.3,56.1L142.3,56.1L142.3,56.1z M98.2,76.9c0.6-3.2,2.1-6.3,4.6-8.7c6.6-6.6,17.2-6.6,23.8,0
		c1.7,1.7,3,3.7,3.8,5.8L98.2,76.9L98.2,76.9L98.2,76.9z M131.8,65.6c-7.8-7.8-20.4-7.8-28.2,0c-3.2,3.2-5,7.2-5.6,11.4l-5.2,0.5
		c0.6-4.9,2.8-9.7,6.6-13.5c9.1-9.1,23.9-9.1,33,0c2.7,2.7,4.6,5.9,5.7,9.4l-1.5,0.1C135.6,70.6,134,67.9,131.8,65.6L131.8,65.6
		L131.8,65.6z M144.1,72.8c-1.1-4.4-3.4-8.5-6.8-11.9c-10.2-10.2-26.8-10.2-37,0c-4.6,4.6-7.1,10.5-7.5,16.6l-3,0.3l-1.6,0.1
		c0.4-6.9,3.2-13.7,8.4-18.9c11.3-11.3,29.7-11.3,41,0c3.9,3.9,6.5,8.7,7.7,13.8L144.1,72.8L144.1,72.8L144.1,72.8z"/>
	<path fill="#AC8643" d="M95.5,117.8c-0.2-0.1-0.3-0.2-0.4-0.4c-0.1-0.2-0.2-0.3-0.2-0.5c0-0.2,0-0.4,0-0.5c0-0.2,0.1-0.4,0.2-0.5
		c0.1-0.2,0.2-0.3,0.4-0.4c0.2-0.1,0.3-0.2,0.5-0.2c0.2,0,0.4,0,0.5,0c0.2,0,0.4,0.1,0.5,0.2c0.2,0.1,0.3,0.2,0.4,0.4
		c0.1,0.2,0.2,0.3,0.2,0.5c0,0.2,0,0.4,0,0.5s-0.1,0.4-0.2,0.5c-0.1,0.2-0.2,0.3-0.4,0.4c-0.2,0.1-0.3,0.2-0.5,0.2
		c-0.2,0-0.4,0-0.5,0C95.9,118,95.7,117.9,95.5,117.8L95.5,117.8L95.5,117.8z"/>
	<path fill="#AC8643" d="M91.4,113.6c-0.3-0.2-0.5-0.4-0.8-0.6c-0.3-0.2-0.5-0.4-0.8-0.6c0,0,0.1-0.1,0.1-0.1c0,0,0.1-0.1,0.1-0.1
		c0,0,0.1-0.1,0.1-0.1c0,0,0-0.1,0.1-0.1c0.1,0.2,0.3,0.3,0.5,0.5c0.2,0.2,0.3,0.3,0.5,0.4c0.1,0.1,0.2,0.1,0.3,0.2
		c0.1,0.1,0.2,0.1,0.3,0.2c0.1-0.1,0.2-0.3,0.4-0.4c0.1-0.1,0.2-0.3,0.4-0.4c0.1-0.1,0.1-0.2,0.2-0.3c0.1-0.1,0.2-0.2,0.2-0.3
		c0.1-0.1,0.1-0.2,0.2-0.3c0.1-0.1,0.1-0.1,0.1-0.2c-0.2-0.2-0.4-0.4-0.7-0.6c-0.3-0.2-0.6-0.5-1-0.7c0,0,0.1-0.1,0.1-0.1
		c0,0,0.1-0.1,0.1-0.1c0,0,0.1-0.1,0.1-0.1s0-0.1,0.1-0.1c0.1,0.1,0.3,0.3,0.4,0.4c0.1,0.1,0.3,0.2,0.4,0.4c0.2,0.2,0.5,0.4,0.8,0.6
		c0.3,0.2,0.5,0.4,0.8,0.6c-0.1,0.1-0.2,0.2-0.3,0.3c-0.1,0.1-0.2,0.3-0.4,0.4c-0.1,0.2-0.3,0.4-0.5,0.6c-0.2,0.2-0.4,0.5-0.7,0.9
		c-0.1,0.2-0.3,0.3-0.4,0.5c-0.1,0.2-0.3,0.4-0.5,0.6c-0.2,0.2-0.3,0.4-0.4,0.6c-0.1,0.2-0.3,0.4-0.4,0.5c-0.2-0.2-0.4-0.4-0.6-0.6
		c-0.2-0.2-0.4-0.4-0.7-0.6c-0.2-0.1-0.3-0.3-0.5-0.4c-0.2-0.1-0.3-0.3-0.5-0.4c0,0,0.1-0.1,0.1-0.1c0,0,0.1-0.1,0.1-0.1
		c0,0,0.1-0.1,0.1-0.1c0,0,0-0.1,0.1-0.1c0,0.1,0.1,0.1,0.2,0.2c0.1,0.1,0.1,0.1,0.2,0.2c0.1,0.1,0.2,0.2,0.2,0.2
		c0.1,0.1,0.2,0.2,0.4,0.3c0.1,0.1,0.2,0.2,0.3,0.2c0.1,0.1,0.2,0.2,0.3,0.3c0.1-0.1,0.1-0.1,0.2-0.2c0,0,0.1-0.1,0.1-0.1
		c0-0.1,0.1-0.1,0.1-0.2c0.1-0.1,0.1-0.1,0.2-0.2c0.1-0.1,0.2-0.2,0.2-0.3c0.1-0.1,0.1-0.1,0.2-0.2c0-0.1,0.1-0.1,0.1-0.2
		C91.3,113.8,91.4,113.7,91.4,113.6L91.4,113.6L91.4,113.6z"/>
	<path fill="#AC8643" d="M90.2,108.8c-0.1-0.1-0.2-0.3-0.3-0.3c-0.1-0.1-0.1-0.1-0.2-0.2c-0.1-0.1-0.2-0.2-0.3-0.3
		c-0.1-0.1-0.2-0.2-0.3-0.3c-0.1-0.1-0.2-0.2-0.3-0.3c-0.1-0.1-0.2-0.2-0.3-0.2c0,0,0.1,0,0.1-0.1c0,0,0.1-0.1,0.1-0.1
		c0,0,0.1-0.1,0.1-0.1c0,0,0-0.1,0.1-0.1c0.1,0.1,0.2,0.2,0.3,0.3c0.1,0.1,0.2,0.2,0.3,0.3c0.1,0.1,0.2,0.2,0.3,0.3
		c0.1,0.1,0.2,0.3,0.4,0.4c0.1,0.1,0.2,0.2,0.3,0.3c0.1,0.1,0.2,0.2,0.2,0.2c0.1,0.1,0.1,0.1,0.2,0.2c0.1,0.1,0.1,0.1,0.2,0.2
		c-0.2,0.2-0.4,0.3-0.6,0.5c-0.2,0.2-0.4,0.3-0.5,0.5c-0.2,0.2-0.4,0.3-0.5,0.5c-0.2,0.2-0.4,0.4-0.6,0.5c-0.2,0.2-0.4,0.4-0.6,0.6
		c-0.2,0.2-0.4,0.4-0.6,0.6c-0.2,0.2-0.3,0.3-0.4,0.5c-0.1,0.1-0.2,0.2-0.3,0.3c0-0.1-0.1-0.1-0.1-0.2c0-0.1-0.1-0.1-0.2-0.2
		c-0.1-0.1-0.1-0.1-0.2-0.2c-0.1,0-0.1-0.1-0.2-0.1c0.3-0.2,0.5-0.5,0.7-0.7c0.2-0.2,0.4-0.4,0.6-0.5c0.2-0.2,0.4-0.3,0.5-0.5
		c0.2-0.2,0.4-0.3,0.5-0.5c0.2-0.2,0.4-0.4,0.6-0.6C89.6,109.3,89.9,109.1,90.2,108.8L90.2,108.8L90.2,108.8z"/>
	<path fill="#AC8643" d="M85.4,107.7c-0.2-0.3-0.4-0.5-0.6-0.8c-0.2-0.2-0.4-0.5-0.7-0.7c0,0,0.1,0,0.1-0.1c0,0,0.1-0.1,0.1-0.1
		c0,0,0.1-0.1,0.1-0.1c0,0,0.1-0.1,0.1-0.1c0.1,0.2,0.2,0.4,0.4,0.6c0.1,0.2,0.3,0.4,0.4,0.5c0.1,0.1,0.1,0.2,0.2,0.3
		c0.1,0.1,0.1,0.2,0.2,0.2c0.1-0.1,0.3-0.2,0.4-0.3c0.1-0.1,0.3-0.2,0.4-0.3c0.1-0.1,0.2-0.1,0.3-0.2c0.1-0.1,0.2-0.2,0.3-0.2
		c0.1-0.1,0.2-0.2,0.3-0.2c0.1-0.1,0.1-0.1,0.2-0.2c-0.2-0.2-0.4-0.4-0.6-0.7c-0.2-0.3-0.5-0.6-0.9-0.9c0,0,0.1,0,0.1-0.1
		c0,0,0.1-0.1,0.1-0.1c0,0,0.1-0.1,0.1-0.1c0,0,0-0.1,0.1-0.1c0.1,0.2,0.2,0.3,0.3,0.5c0.1,0.1,0.2,0.3,0.4,0.4
		c0.2,0.2,0.4,0.5,0.6,0.7c0.2,0.2,0.4,0.5,0.6,0.7c-0.1,0.1-0.3,0.2-0.4,0.3c-0.1,0.1-0.3,0.2-0.5,0.3c-0.2,0.1-0.4,0.3-0.6,0.5
		c-0.2,0.2-0.5,0.4-0.9,0.7c-0.2,0.1-0.3,0.3-0.5,0.4c-0.2,0.2-0.4,0.3-0.5,0.5c-0.2,0.2-0.4,0.3-0.5,0.5c-0.2,0.2-0.3,0.3-0.5,0.4
		c-0.2-0.2-0.3-0.5-0.5-0.7c-0.2-0.2-0.4-0.4-0.5-0.7c-0.1-0.2-0.3-0.3-0.4-0.5c-0.1-0.2-0.3-0.3-0.4-0.5c0,0,0.1,0,0.1-0.1
		c0,0,0.1-0.1,0.1-0.1c0,0,0.1-0.1,0.1-0.1c0,0,0.1-0.1,0.1-0.1c0,0.1,0.1,0.1,0.1,0.2c0,0.1,0.1,0.1,0.1,0.2
		c0.1,0.1,0.1,0.2,0.2,0.3c0.1,0.1,0.2,0.2,0.3,0.4c0.1,0.1,0.2,0.2,0.2,0.3c0.1,0.1,0.2,0.2,0.3,0.3c0.1,0,0.1-0.1,0.2-0.1
		c0.1,0,0.1-0.1,0.2-0.1c0.1,0,0.1-0.1,0.2-0.1c0.1-0.1,0.1-0.1,0.2-0.2c0.1-0.1,0.2-0.2,0.3-0.2c0.1-0.1,0.1-0.1,0.2-0.2
		c0.1,0,0.1-0.1,0.2-0.1C85.3,107.9,85.4,107.8,85.4,107.7L85.4,107.7L85.4,107.7z"/>
	<path fill="#AC8643" d="M82.4,99.8c0.1,0,0.2-0.1,0.3-0.1c0.1,0,0.2-0.1,0.3-0.2c0.3,0.2,0.6,0.4,0.9,0.6c0.3,0.2,0.5,0.5,0.7,0.8
		c0.3,0.4,0.4,0.8,0.5,1.2c0.1,0.4,0.1,0.8,0,1.1c-0.1,0.4-0.2,0.7-0.5,1c-0.2,0.3-0.5,0.6-0.9,0.8c-0.3,0.2-0.7,0.4-1.1,0.5
		c-0.4,0.1-0.7,0.1-1.1,0c-0.4-0.1-0.7-0.2-1.1-0.5c-0.3-0.3-0.7-0.6-1-1.1c-0.1-0.2-0.2-0.4-0.3-0.6c-0.1-0.2-0.2-0.4-0.2-0.5
		c-0.1-0.2-0.1-0.3-0.1-0.5c0-0.1,0-0.3-0.1-0.4c0.1,0,0.2,0,0.2-0.1c0.1,0,0.1,0,0.2-0.1c0.1,0,0.1,0,0.2-0.1
		c0.1,0,0.1-0.1,0.2-0.1l0,0.1c-0.1,0.1-0.1,0.2-0.1,0.4c0,0.2,0,0.3,0,0.5c0,0.2,0.1,0.4,0.1,0.6c0.1,0.2,0.2,0.4,0.3,0.6
		c0.2,0.3,0.4,0.5,0.6,0.7c0.2,0.2,0.5,0.3,0.8,0.3c0.3,0,0.6,0,0.9-0.1c0.3-0.1,0.7-0.2,1-0.5c0.4-0.2,0.6-0.5,0.9-0.8
		c0.2-0.3,0.3-0.6,0.4-0.9c0.1-0.3,0.1-0.6,0-0.9c-0.1-0.3-0.2-0.6-0.3-0.8c-0.1-0.1-0.1-0.2-0.2-0.3c-0.1-0.1-0.2-0.2-0.4-0.3
		c-0.1-0.1-0.3-0.2-0.5-0.3c-0.2-0.1-0.4-0.2-0.7-0.2L82.4,99.8L82.4,99.8L82.4,99.8z"/>
	<path fill="#AC8643" d="M79.6,98.8c-0.3,0.2-0.7,0.3-1,0.5c-0.3,0.2-0.6,0.3-0.8,0.4c0.2,0.4,0.4,0.7,0.5,1
		c0.1,0.3,0.3,0.5,0.4,0.6c0,0-0.1,0-0.1,0c0,0-0.1,0-0.1,0.1c-0.1,0-0.1,0.1-0.1,0.1c0,0-0.1,0-0.1,0.1c0-0.1-0.1-0.3-0.2-0.4
		c-0.1-0.2-0.2-0.4-0.2-0.5c-0.1-0.2-0.2-0.4-0.3-0.6c-0.1-0.2-0.2-0.4-0.2-0.5c-0.1-0.2-0.2-0.4-0.3-0.6c-0.1-0.2-0.2-0.4-0.3-0.5
		c-0.1-0.2-0.2-0.3-0.3-0.5c-0.1-0.2-0.2-0.3-0.2-0.4c0,0,0.1,0,0.1,0c0,0,0.1,0,0.1-0.1c0.1,0,0.1-0.1,0.1-0.1c0,0,0.1-0.1,0.1-0.1
		c0,0.1,0.1,0.3,0.2,0.6c0.1,0.3,0.3,0.6,0.5,1.1c0.3-0.1,0.5-0.2,0.8-0.4s0.5-0.2,0.8-0.4c0.2-0.1,0.5-0.2,0.7-0.3
		c0.3-0.1,0.5-0.2,0.8-0.4c0.3-0.1,0.5-0.3,0.8-0.4c0.3-0.1,0.6-0.3,0.8-0.5c0,0.1,0.1,0.2,0.1,0.3c0,0.1,0.1,0.1,0.1,0.2
		c0,0.1,0.1,0.2,0.1,0.2c0,0.1,0.1,0.1,0.1,0.1c-0.4,0.2-0.9,0.4-1.4,0.6C80.6,98.3,80.1,98.5,79.6,98.8L79.6,98.8L79.6,98.8z"/>
	<path fill="#AC8643" d="M79.8,90.5c0,0.1,0,0.2,0,0.2c0,0.1,0,0.2,0.1,0.2c0,0.1,0.1,0.2,0.1,0.3c0,0.1,0.1,0.2,0.1,0.3
		c-0.2,0.3-0.4,0.6-0.6,0.8c-0.2,0.3-0.4,0.5-0.5,0.7c-0.2,0.2-0.3,0.5-0.4,0.7c-0.1,0.2-0.3,0.4-0.4,0.6l0.1,0.2
		c0.3-0.1,0.6-0.2,1-0.4c0.4-0.2,0.9-0.4,1.6-0.6c0,0.1,0,0.2,0,0.2c0,0.1,0,0.2,0.1,0.2c0,0.1,0.1,0.2,0.1,0.2
		c0,0.1,0.1,0.1,0.1,0.2c-0.5,0.1-0.9,0.3-1.4,0.5c-0.5,0.2-1,0.3-1.6,0.6c-0.4,0.1-0.7,0.3-1.1,0.4c-0.4,0.2-0.8,0.3-1.3,0.5
		c0-0.2-0.1-0.3-0.1-0.4c0-0.1-0.1-0.2-0.1-0.3c0,0,0-0.1-0.1-0.2c0-0.1-0.1-0.2-0.1-0.3c0-0.1-0.1-0.2-0.1-0.3
		c0-0.1-0.1-0.1-0.1-0.2c-0.1-0.2-0.1-0.4-0.2-0.6c0-0.2-0.1-0.3-0.1-0.4c0-0.1,0-0.2,0-0.3c0-0.1,0-0.2,0.1-0.3
		c0.1-0.2,0.2-0.3,0.3-0.5c0.1-0.1,0.3-0.2,0.5-0.3c0.3-0.1,0.5-0.1,0.7-0.1c0.2,0.1,0.4,0.1,0.6,0.3c0.2,0.1,0.3,0.3,0.4,0.4
		c0.1,0.2,0.2,0.3,0.3,0.4c0.1-0.1,0.1-0.2,0.3-0.4c0.1-0.2,0.2-0.4,0.4-0.6c0.1-0.2,0.3-0.4,0.4-0.7c0.1-0.2,0.3-0.4,0.4-0.6
		c0.1-0.2,0.2-0.4,0.3-0.5C79.6,90.7,79.7,90.6,79.8,90.5L79.8,90.5L79.8,90.5L79.8,90.5z M76.2,93.3c-0.2,0.1-0.4,0.2-0.5,0.3
		c-0.1,0.1-0.2,0.3-0.2,0.4c0,0.2,0,0.3,0,0.5c0,0.2,0.1,0.3,0.1,0.5c0,0.1,0.1,0.2,0.1,0.3c0,0.1,0.1,0.1,0.1,0.2
		c0.2-0.1,0.4-0.1,0.5-0.2c0.2-0.1,0.4-0.1,0.5-0.2c0.1,0,0.2-0.1,0.3-0.1c0.1,0,0.2-0.1,0.3-0.1c0.1,0,0.2-0.1,0.3-0.1
		c0.1,0,0.1-0.1,0.2-0.1c0-0.1,0-0.1-0.1-0.2c0-0.1,0-0.1-0.1-0.2c0-0.1-0.1-0.2-0.2-0.4c-0.1-0.2-0.2-0.3-0.3-0.4
		c-0.1-0.1-0.3-0.2-0.5-0.3C76.7,93.2,76.5,93.2,76.2,93.3L76.2,93.3L76.2,93.3z"/>
	<path fill="#AC8643" d="M73.3,88.2c-0.1-0.4-0.1-0.8-0.1-1.2c0-0.4,0.2-0.8,0.3-1.1c0.2-0.3,0.4-0.6,0.8-0.8
		c0.3-0.2,0.7-0.4,1.2-0.5c0.4-0.1,0.8-0.1,1.2,0c0.4,0.1,0.8,0.2,1.1,0.4c0.3,0.2,0.6,0.5,0.8,0.9c0.2,0.4,0.4,0.8,0.5,1.3
		c0.1,0.4,0.1,0.9,0,1.3c-0.1,0.4-0.2,0.8-0.4,1.1c-0.2,0.3-0.5,0.6-0.8,0.8c-0.3,0.2-0.7,0.4-1.2,0.5c-0.4,0.1-0.8,0.1-1.2,0
		c-0.4-0.1-0.7-0.2-1-0.4c-0.3-0.2-0.6-0.5-0.8-0.9C73.5,89.2,73.4,88.7,73.3,88.2L73.3,88.2L73.3,88.2z M76.6,89.9
		c0.4-0.1,0.7-0.2,1-0.4c0.3-0.2,0.5-0.4,0.7-0.6c0.2-0.2,0.3-0.5,0.4-0.8c0.1-0.3,0.1-0.6,0-0.9c-0.1-0.3-0.2-0.6-0.4-0.8
		c-0.2-0.2-0.4-0.4-0.6-0.6c-0.3-0.2-0.6-0.2-0.9-0.3c-0.3,0-0.7,0-1.1,0.1c-0.1,0-0.2,0.1-0.4,0.1c-0.1,0-0.3,0.1-0.4,0.1
		c-0.1,0.1-0.3,0.1-0.4,0.2c-0.1,0.1-0.2,0.2-0.4,0.3c-0.2,0.1-0.3,0.3-0.4,0.5c-0.1,0.2-0.2,0.4-0.2,0.5c0,0.2-0.1,0.4-0.1,0.5
		c0,0.2,0,0.3,0,0.5c0.1,0.3,0.2,0.5,0.3,0.8c0.1,0.2,0.3,0.4,0.6,0.6c0.2,0.2,0.5,0.3,0.9,0.3C75.8,90,76.2,90,76.6,89.9L76.6,89.9
		L76.6,89.9z"/>
	<path fill="#AC8643" d="M75,82.1c-0.4,0-0.7,0-1.1,0.1c-0.3,0-0.7,0-0.9,0.1c0,0.4,0.1,0.8,0.1,1.1c0,0.3,0.1,0.5,0.1,0.7
		c0,0-0.1,0-0.1,0c0,0-0.1,0-0.2,0c-0.1,0-0.1,0-0.2,0c0,0-0.1,0-0.1,0c0-0.1,0-0.3,0-0.5c0-0.2,0-0.4,0-0.6c0-0.2,0-0.4,0-0.6
		c0-0.2,0-0.4,0-0.6c0-0.2,0-0.4,0-0.6c0-0.2,0-0.4,0-0.6c0-0.2,0-0.4-0.1-0.5c0-0.2,0-0.3-0.1-0.5c0,0,0.1,0,0.1,0c0,0,0.1,0,0.2,0
		c0.1,0,0.1,0,0.2,0c0,0,0.1,0,0.1,0c0,0.1,0,0.3,0,0.6c0,0.3,0,0.7,0,1.2c0.3,0,0.6,0,0.9,0c0.3,0,0.6,0,0.9-0.1c0.2,0,0.5,0,0.8,0
		c0.3,0,0.6,0,0.9-0.1c0.3,0,0.6,0,0.9-0.1c0.3,0,0.6-0.1,0.9-0.1c0,0.1,0,0.3,0,0.4c0,0.1,0,0.1,0,0.2c0,0.1,0,0.2,0,0.3
		c0,0.1,0,0.1,0,0.2c-0.5,0-1,0-1.5,0C76.2,82,75.6,82.1,75,82.1L75,82.1L75,82.1z"/>
	<path fill="#AC8643" d="M74.9,77.6c0-0.3,0-0.7,0-1c0-0.3,0-0.6,0-1c0,0,0.1,0,0.1,0c0,0,0.1,0,0.2,0c0,0,0.1,0,0.1,0
		c0,0,0.1,0,0.1,0c0,0.2-0.1,0.4-0.1,0.7c0,0.2,0,0.4,0,0.6c0,0.1,0,0.2,0,0.3c0,0.1,0,0.2,0,0.3c0.2,0,0.4,0,0.5,0
		c0.2,0,0.4,0,0.5,0c0.1,0,0.2,0,0.4,0c0.1,0,0.2,0,0.4,0c0.1,0,0.2,0,0.3,0c0.1,0,0.2,0,0.2,0c0-0.3,0-0.6,0-0.9c0-0.3,0-0.8,0-1.3
		c0,0,0.1,0,0.1,0c0,0,0.1,0,0.2,0c0.1,0,0.1,0,0.1,0c0,0,0.1,0,0.1,0c0,0.2-0.1,0.4-0.1,0.6c0,0.2,0,0.4,0,0.6c0,0.3,0,0.6,0,1
		c0,0.3,0,0.6,0,1c-0.2,0-0.3,0-0.5-0.1c-0.2,0-0.3,0-0.6-0.1c-0.2,0-0.5,0-0.8-0.1c-0.3,0-0.7,0-1.1-0.1c-0.2,0-0.4,0-0.7,0
		c-0.2,0-0.5,0-0.7,0c-0.2,0-0.5,0-0.7,0c-0.2,0-0.5,0-0.7,0c0-0.3,0.1-0.6,0.1-0.9c0-0.3,0-0.6,0-0.9c0-0.2,0-0.4,0-0.6
		c0-0.2,0-0.4,0-0.6c0,0,0.1,0,0.1,0c0,0,0.1,0,0.2,0c0.1,0,0.1,0,0.1,0c0,0,0.1,0,0.1,0c0,0.1,0,0.2-0.1,0.2c0,0.1,0,0.2,0,0.3
		c0,0.1,0,0.2,0,0.3c0,0.1,0,0.3,0,0.5c0,0.1,0,0.3,0,0.4c0,0.1,0,0.2,0,0.4c0.1,0,0.2,0,0.2,0c0.1,0,0.1,0,0.2,0c0.1,0,0.1,0,0.2,0
		c0.1,0,0.2,0,0.3,0c0.1,0,0.2,0,0.3,0c0.1,0,0.2,0,0.2,0c0.1,0,0.1,0,0.2,0C74.7,77.6,74.8,77.6,74.9,77.6L74.9,77.6L74.9,77.6z"/>
	<path fill="#AC8643" d="M78,69.5c0.1,0,0.2,0.1,0.3,0.1c0.1,0,0.2,0.1,0.4,0.1c0.1,0.3,0.2,0.7,0.2,1c0,0.4,0,0.7,0,1.1
		c-0.1,0.5-0.2,0.9-0.4,1.2c-0.2,0.3-0.5,0.6-0.8,0.9c-0.3,0.2-0.6,0.4-1,0.4c-0.4,0.1-0.8,0.1-1.2,0c-0.4-0.1-0.8-0.2-1.1-0.4
		c-0.3-0.2-0.6-0.4-0.8-0.7c-0.2-0.3-0.4-0.7-0.5-1.1c-0.1-0.4-0.1-0.9,0-1.4c0-0.2,0.1-0.5,0.2-0.7c0.1-0.2,0.1-0.4,0.2-0.5
		c0.1-0.2,0.1-0.3,0.2-0.4c0.1-0.1,0.1-0.2,0.2-0.3c0.1,0,0.1,0.1,0.2,0.1c0.1,0,0.1,0.1,0.2,0.1c0.1,0,0.1,0,0.2,0.1
		c0.1,0,0.1,0,0.2,0.1l0,0.1c-0.1,0-0.2,0.1-0.4,0.2c-0.1,0.1-0.2,0.2-0.4,0.4c-0.1,0.1-0.2,0.3-0.3,0.5c-0.1,0.2-0.1,0.4-0.2,0.6
		c-0.1,0.3,0,0.6,0,0.9c0.1,0.3,0.2,0.5,0.4,0.8c0.2,0.2,0.4,0.4,0.7,0.6c0.3,0.2,0.6,0.3,1,0.3c0.4,0.1,0.8,0.1,1.1,0
		c0.3-0.1,0.6-0.2,0.9-0.4c0.2-0.2,0.4-0.4,0.6-0.6c0.1-0.3,0.2-0.5,0.3-0.8c0-0.1,0-0.2,0-0.4c0-0.1,0-0.3,0-0.5
		c0-0.2-0.1-0.4-0.2-0.6C78.2,70,78.1,69.8,78,69.5L78,69.5L78,69.5L78,69.5z"/>
	<path fill="#AC8643" d="M78,67.6c0.2,0.1,0.3,0.1,0.5,0.1c0.1,0,0.2,0.1,0.3,0.1c0.1,0,0.2,0.1,0.3,0.1c0.1,0,0.2,0.1,0.4,0.1
		c0,0.1-0.1,0.1-0.1,0.2c0,0.1-0.1,0.1-0.1,0.2c0,0.1,0,0.2-0.1,0.2c0,0.1,0,0.1,0,0.2c-0.3-0.1-0.6-0.2-0.9-0.3
		c-0.2-0.1-0.5-0.2-0.7-0.2c-0.2-0.1-0.4-0.1-0.6-0.2S76.7,68,76.4,68c-0.2,0-0.3-0.1-0.4-0.1c-0.1,0-0.3-0.1-0.4-0.1
		c-0.2-0.1-0.4-0.1-0.7-0.2c-0.3-0.1-0.6-0.2-1.1-0.3c0-0.1,0.1-0.1,0.1-0.2c0-0.1,0.1-0.1,0.1-0.3c0-0.1,0.1-0.2,0.1-0.3
		c0-0.1,0-0.1,0-0.2c0.1,0,0.2,0.1,0.3,0.1c0.2,0.1,0.4,0.1,0.6,0.2c0.2,0.1,0.4,0.1,0.7,0.2c0.2,0.1,0.5,0.2,0.7,0.2
		c0.1-0.3,0.2-0.5,0.3-0.8c0.1-0.3,0.2-0.5,0.3-0.8c0-0.2,0.1-0.3,0.1-0.4c0-0.1,0.1-0.2,0.1-0.4c0-0.1,0.1-0.2,0.1-0.3
		c0-0.1,0.1-0.2,0.1-0.3c-0.3-0.1-0.5-0.2-0.7-0.2c-0.2-0.1-0.3-0.1-0.5-0.1c-0.2,0-0.3-0.1-0.5-0.1c-0.2,0-0.4-0.1-0.7-0.2
		c0-0.1,0.1-0.1,0.1-0.2c0-0.1,0.1-0.1,0.1-0.3c0-0.1,0.1-0.2,0.1-0.3c0-0.1,0-0.1,0-0.2c0.7,0.2,1.3,0.5,1.9,0.7
		c0.6,0.2,1.3,0.4,1.8,0.6c0.2,0,0.3,0.1,0.4,0.1c0.1,0,0.2,0.1,0.4,0.1c0.1,0,0.3,0.1,0.4,0.1c0.1,0,0.3,0.1,0.5,0.1
		c0,0.1-0.1,0.1-0.1,0.2c0,0.1-0.1,0.1-0.1,0.2c0,0.1,0,0.1,0,0.2c0,0.1,0,0.2,0,0.3c-0.1,0-0.2-0.1-0.4-0.1
		c-0.2-0.1-0.3-0.1-0.4-0.2c-0.1-0.1-0.3-0.1-0.4-0.1c-0.1,0-0.2-0.1-0.3-0.1l-1.2-0.4c0,0.1-0.1,0.2-0.1,0.3c0,0.1-0.1,0.2-0.1,0.3
		c0,0.1-0.1,0.2-0.1,0.4c0,0.1-0.1,0.3-0.2,0.5c-0.1,0.2-0.1,0.3-0.1,0.5c0,0.1-0.1,0.2-0.1,0.3c0,0.1-0.1,0.2-0.1,0.3
		c0,0.1-0.1,0.2-0.1,0.4L78,67.6L78,67.6L78,67.6z"/>
	<path fill="#AC8643" d="M78.1,60.8c0.3,0.1,0.6,0.3,0.8,0.4c0.2,0.1,0.4,0.2,0.6,0.3c0.2,0.1,0.4,0.2,0.5,0.2
		c0.2,0.1,0.3,0.1,0.5,0.2c0.2,0.1,0.3,0.1,0.5,0.2c0.2,0.1,0.3,0.1,0.5,0.2c0,0-0.1,0.1-0.1,0.1c0,0-0.1,0.1-0.1,0.2
		c0,0.1-0.1,0.1-0.1,0.2c0,0,0,0.1,0,0.1c-0.1-0.1-0.2-0.1-0.4-0.2c-0.2-0.1-0.4-0.2-0.6-0.3c-0.2-0.1-0.5-0.2-0.7-0.4
		c-0.2-0.1-0.5-0.2-0.7-0.3c-0.1,0-0.2-0.1-0.4-0.2s-0.4-0.2-0.6-0.3c-0.2-0.1-0.4-0.2-0.6-0.3c-0.2-0.1-0.3-0.1-0.4-0.2l-0.9-0.4
		c0,0,0,0,0-0.1c0,0,0,0,0-0.1c0,0,0,0,0-0.1c0,0,0-0.1,0-0.1l0.4-0.1c0.1,0,0.2,0,0.2-0.1c0.1,0,0.2,0,0.3-0.1
		c0.1,0,0.2-0.1,0.3-0.1c0.1,0,0.3-0.1,0.5-0.1c0.4-0.1,0.7-0.2,1-0.3c0.3-0.1,0.5-0.2,0.7-0.2c0.2-0.1,0.4-0.1,0.6-0.2
		c0.2-0.1,0.3-0.1,0.5-0.2c0.2-0.1,0.3-0.1,0.5-0.2c0.2-0.1,0.4-0.1,0.6-0.2l-0.3-0.1c-0.5-0.2-0.9-0.4-1.2-0.6
		c-0.3-0.2-0.6-0.3-0.9-0.4c-0.3-0.1-0.5-0.2-0.8-0.3c-0.2-0.1-0.5-0.2-0.8-0.3c0,0,0.1-0.1,0.1-0.1c0,0,0.1-0.1,0.1-0.2
		c0-0.1,0.1-0.1,0.1-0.2c0-0.1,0-0.1,0-0.2c0.5,0.3,1,0.6,1.6,0.9c0.5,0.3,1.1,0.5,1.6,0.8c0.1,0.1,0.3,0.1,0.5,0.2
		c0.2,0.1,0.4,0.2,0.5,0.3c0.2,0.1,0.4,0.2,0.5,0.2c0.2,0.1,0.3,0.1,0.5,0.2c0,0,0,0.1,0,0.1c0,0,0,0,0,0.1c0,0,0,0,0,0.1
		c0,0,0,0,0,0.1c-0.1,0-0.2,0-0.3,0.1c-0.1,0-0.3,0.1-0.5,0.1c-0.2,0-0.4,0.1-0.6,0.2c-0.2,0.1-0.4,0.1-0.6,0.2
		c-0.2,0.1-0.4,0.1-0.6,0.2c-0.2,0.1-0.3,0.1-0.4,0.2c-0.1,0-0.2,0.1-0.3,0.1c-0.1,0-0.2,0.1-0.3,0.1l-2.2,0.7L78.1,60.8L78.1,60.8
		L78.1,60.8z"/>
	<path fill="#AC8643" d="M81.9,55.4c-0.2-0.1-0.3-0.2-0.4-0.3c-0.1-0.1-0.2-0.1-0.3-0.2c-0.1-0.1-0.2-0.1-0.3-0.2
		c-0.1-0.1-0.2-0.1-0.3-0.2c-0.1-0.1-0.3-0.2-0.4-0.2c-0.2-0.1-0.3-0.2-0.6-0.3c0,0,0.1-0.1,0.1-0.1c0,0,0.1-0.1,0.2-0.2
		c0.1-0.1,0.1-0.2,0.1-0.2c0-0.1,0.1-0.1,0.1-0.2c0.4,0.3,0.8,0.6,1.2,0.8c0.4,0.3,0.8,0.5,1.2,0.8c0.3,0.2,0.6,0.4,0.8,0.5
		c0.2,0.1,0.4,0.3,0.6,0.4c0.2,0.1,0.4,0.2,0.5,0.3c0.1,0.1,0.3,0.2,0.4,0.2c-0.1,0.1-0.1,0.1-0.2,0.2c-0.1,0.1-0.1,0.1-0.2,0.2
		c-0.1,0.1-0.1,0.2-0.1,0.2c0,0.1-0.1,0.1-0.1,0.2c-0.2-0.1-0.3-0.3-0.5-0.4c-0.1-0.1-0.3-0.2-0.5-0.3c-0.2-0.1-0.4-0.3-0.6-0.4
		C82.5,55.8,82.2,55.6,81.9,55.4L81.9,55.4L81.9,55.4z"/>
	<path fill="#AC8643" d="M87.8,50.3c0.1,0.1,0.1,0.1,0.2,0.2c0.1,0.1,0.2,0.2,0.3,0.3c0,0.4-0.1,0.7-0.3,1c-0.1,0.3-0.3,0.6-0.5,0.9
		c-0.3,0.4-0.6,0.7-1,0.9c-0.3,0.2-0.7,0.3-1.1,0.4c-0.4,0-0.7,0-1.1-0.1c-0.4-0.1-0.7-0.3-1.1-0.6c-0.3-0.2-0.6-0.5-0.8-0.8
		c-0.2-0.3-0.3-0.7-0.4-1c-0.1-0.4,0-0.8,0.1-1.2c0.1-0.4,0.3-0.8,0.7-1.3c0.2-0.2,0.3-0.4,0.5-0.5c0.2-0.1,0.3-0.3,0.4-0.4
		c0.1-0.1,0.3-0.2,0.4-0.3c0.1-0.1,0.2-0.1,0.3-0.2c0,0.1,0.1,0.1,0.1,0.2c0,0.1,0.1,0.1,0.1,0.2c0,0,0.1,0.1,0.1,0.1
		c0,0,0.1,0.1,0.2,0.2L85,48.4c-0.1,0-0.3,0-0.4,0c-0.2,0-0.3,0.1-0.5,0.1c-0.2,0.1-0.3,0.2-0.5,0.3c-0.2,0.1-0.3,0.3-0.4,0.4
		c-0.2,0.3-0.3,0.5-0.4,0.8c-0.1,0.3-0.1,0.6,0,0.9c0.1,0.3,0.2,0.6,0.4,0.8c0.2,0.3,0.4,0.5,0.8,0.8c0.3,0.3,0.7,0.4,1,0.5
		c0.3,0.1,0.6,0.1,0.9,0.1c0.3,0,0.6-0.1,0.8-0.3c0.3-0.1,0.5-0.3,0.6-0.6c0.1-0.1,0.1-0.2,0.2-0.3c0.1-0.1,0.1-0.3,0.2-0.4
		c0.1-0.2,0.1-0.4,0.1-0.6C87.8,50.8,87.8,50.6,87.8,50.3L87.8,50.3L87.8,50.3L87.8,50.3z"/>
	<path fill="#AC8643" d="M88.5,48.2c0.1,0.2,0.2,0.5,0.3,0.8c0.1,0.4,0.4,0.8,0.6,1.3c0,0-0.1,0.1-0.1,0.1c0,0-0.1,0.1-0.1,0.1
		c-0.1,0.1-0.1,0.1-0.1,0.2c0,0-0.1,0.1-0.1,0.1c-0.1-0.3-0.2-0.6-0.3-0.9c-0.1-0.3-0.2-0.7-0.4-1c-0.1-0.4-0.3-0.7-0.4-1.1
		c-0.1-0.4-0.3-0.7-0.4-1.1c-0.1-0.3-0.3-0.7-0.4-1c-0.1-0.3-0.2-0.6-0.3-0.8c0,0,0.1,0,0.1-0.1c0,0,0.1,0,0.1-0.1c0,0,0,0,0.1-0.1
		c0,0,0,0,0-0.1c0.3,0.1,0.6,0.3,1,0.5c0.4,0.2,0.8,0.3,1.2,0.5c0.4,0.2,0.9,0.4,1.3,0.5c0.4,0.2,0.8,0.3,1.1,0.5
		c0.3,0.1,0.6,0.3,0.8,0.3c0.2,0.1,0.3,0.1,0.3,0.1c-0.1,0-0.1,0.1-0.2,0.1c-0.1,0-0.1,0.1-0.2,0.2c-0.1,0.1-0.1,0.1-0.2,0.2
		c-0.1,0.1-0.1,0.1-0.2,0.2c-0.5-0.3-0.9-0.5-1.2-0.6c-0.4-0.1-0.7-0.3-0.9-0.4L88.5,48.2L88.5,48.2L88.5,48.2z M87.5,45.7l0.8,2.1
		l1.3-1.2L87.5,45.7L87.5,45.7L87.5,45.7z"/>
	<path fill="#AC8643" d="M93.8,45.7c0.2-0.1,0.3-0.2,0.4-0.3c0.1-0.1,0.2-0.1,0.2-0.2c0.1-0.1,0.2-0.1,0.3-0.2
		c0.1-0.1,0.2-0.2,0.3-0.3c0.1-0.1,0.2-0.2,0.3-0.3c0.1-0.1,0.2-0.2,0.2-0.2c0,0,0,0.1,0.1,0.1c0,0,0,0.1,0.1,0.1
		c0,0.1,0.1,0.1,0.1,0.1c0,0,0.1,0.1,0.1,0.1c-0.1,0.1-0.2,0.1-0.3,0.2c-0.1,0.1-0.2,0.1-0.3,0.2c-0.1,0.1-0.2,0.2-0.4,0.3
		c-0.1,0.1-0.3,0.2-0.5,0.4c-0.1,0.1-0.3,0.2-0.4,0.3c-0.1,0.1-0.2,0.1-0.3,0.2c-0.1,0.1-0.1,0.1-0.2,0.2c-0.1,0.1-0.1,0.1-0.2,0.2
		c-0.1-0.2-0.3-0.4-0.4-0.6c-0.1-0.2-0.3-0.4-0.4-0.6c-0.1-0.2-0.3-0.4-0.4-0.6c-0.1-0.2-0.3-0.4-0.5-0.6c-0.2-0.2-0.3-0.4-0.5-0.7
		c-0.2-0.2-0.3-0.4-0.5-0.6c-0.2-0.2-0.3-0.4-0.4-0.5c-0.1-0.1-0.2-0.3-0.3-0.3c0.1,0,0.1-0.1,0.2-0.1c0.1,0,0.1-0.1,0.2-0.1
		c0.1-0.1,0.2-0.1,0.2-0.2c0.1-0.1,0.1-0.1,0.2-0.2c0.2,0.3,0.4,0.5,0.6,0.8c0.2,0.2,0.3,0.4,0.5,0.6c0.1,0.2,0.3,0.4,0.4,0.6
		c0.1,0.2,0.3,0.4,0.5,0.6c0.2,0.2,0.3,0.5,0.5,0.7C93.3,45.1,93.5,45.4,93.8,45.7L93.8,45.7L93.8,45.7z"/>
	<path fill="#AC8643" d="M97,41.2c-0.2-0.3-0.3-0.6-0.5-0.8c-0.1-0.2-0.2-0.4-0.3-0.6c-0.1-0.2-0.2-0.3-0.2-0.4
		c-0.1-0.1-0.1-0.2-0.2-0.4c-0.1-0.1-0.1-0.2-0.2-0.3c-0.1-0.1-0.2-0.2-0.2-0.4c0.1,0,0.2-0.1,0.2-0.1c0.1,0,0.1-0.1,0.2-0.1
		c0.1,0,0.2-0.1,0.2-0.1c0.1,0,0.1-0.1,0.2-0.1c0.1,0.2,0.2,0.5,0.4,0.8c0.1,0.3,0.3,0.5,0.4,0.8c0.1,0.2,0.2,0.5,0.3,0.6
		c0.1,0.2,0.2,0.3,0.2,0.3c0.1,0.2,0.2,0.4,0.3,0.6c0.1,0.2,0.2,0.3,0.3,0.5c0.1,0.1,0.2,0.2,0.3,0.3c0.1,0.1,0.2,0.2,0.3,0.2
		c0.2,0.1,0.4,0.1,0.7,0.1c0.3,0,0.5-0.1,0.7-0.2c0,0,0.1-0.1,0.3-0.2c0.1-0.1,0.2-0.2,0.4-0.4c0.1-0.2,0.2-0.3,0.3-0.6
		c0.1-0.2,0.1-0.5,0-0.8c0-0.1-0.1-0.3-0.2-0.5c-0.1-0.2-0.1-0.3-0.2-0.5c-0.1-0.2-0.1-0.3-0.2-0.4c-0.1-0.1-0.1-0.2-0.1-0.2
		c0-0.1-0.1-0.2-0.2-0.4c-0.1-0.2-0.2-0.4-0.4-0.6c-0.1-0.2-0.3-0.4-0.4-0.7c-0.1-0.2-0.2-0.4-0.3-0.5c0.1,0,0.1,0,0.2,0
		c0.1,0,0.1,0,0.2-0.1c0.1,0,0.1-0.1,0.2-0.1c0,0,0.1-0.1,0.1-0.1c0.1,0.4,0.3,0.8,0.5,1.2c0.2,0.4,0.5,0.9,0.7,1.5
		c0.1,0.2,0.2,0.4,0.3,0.6c0.1,0.2,0.2,0.4,0.2,0.6c0.1,0.2,0.1,0.4,0.1,0.6c0,0.2,0,0.4-0.1,0.6c-0.1,0.2-0.2,0.5-0.4,0.7
		c-0.2,0.2-0.5,0.5-0.9,0.7c-0.1,0.1-0.3,0.1-0.5,0.2c-0.2,0.1-0.4,0.1-0.5,0.1c-0.2,0-0.4,0-0.6,0c-0.2,0-0.4-0.1-0.6-0.2
		c-0.1-0.1-0.2-0.1-0.3-0.2c-0.1-0.1-0.2-0.2-0.3-0.3c-0.1-0.1-0.2-0.2-0.2-0.3C97.1,41.5,97.1,41.4,97,41.2L97,41.2L97,41.2z"/>
	<path fill="#AC8643" d="M102.7,36.8c0.1,0.3,0.2,0.6,0.3,0.8c0.1,0.2,0.2,0.5,0.2,0.6c0.1,0.2,0.1,0.4,0.2,0.5
		c0.1,0.2,0.1,0.3,0.2,0.5c0.1,0.2,0.1,0.3,0.2,0.5c0.1,0.2,0.1,0.3,0.2,0.5c-0.1,0-0.1,0-0.2,0c-0.1,0-0.1,0-0.2,0
		c-0.1,0-0.1,0.1-0.2,0.1c0,0-0.1,0.1-0.1,0.1c0-0.1-0.1-0.3-0.1-0.5c-0.1-0.2-0.1-0.4-0.2-0.7c-0.1-0.2-0.2-0.5-0.2-0.8
		c-0.1-0.3-0.2-0.5-0.2-0.7c0-0.1-0.1-0.2-0.1-0.4c-0.1-0.2-0.1-0.4-0.2-0.6c-0.1-0.2-0.1-0.4-0.2-0.6c-0.1-0.2-0.1-0.3-0.1-0.4
		l-0.3-0.9c0,0,0.1,0,0.1,0c0,0,0,0,0.1,0c0,0,0.1,0,0.1,0c0,0,0.1,0,0.1,0l0.4,0.2c0.1,0,0.1,0.1,0.2,0.1c0.1,0,0.2,0.1,0.3,0.1
		c0.1,0,0.2,0.1,0.3,0.2c0.1,0.1,0.3,0.1,0.4,0.2c0.4,0.2,0.7,0.3,0.9,0.5c0.3,0.1,0.5,0.3,0.7,0.4c0.2,0.1,0.4,0.2,0.5,0.3
		c0.2,0.1,0.3,0.2,0.5,0.2c0.2,0.1,0.3,0.2,0.5,0.2c0.2,0.1,0.4,0.2,0.6,0.3l-0.1-0.3c-0.2-0.5-0.3-0.9-0.5-1.3
		c-0.1-0.4-0.2-0.7-0.3-0.9c-0.1-0.3-0.2-0.5-0.3-0.8c-0.1-0.2-0.2-0.5-0.3-0.8c0,0,0.1,0,0.1,0c0.1,0,0.1,0,0.2,0
		c0.1,0,0.1,0,0.2-0.1c0.1,0,0.1-0.1,0.1-0.1c0.1,0.6,0.3,1.2,0.5,1.7c0.2,0.6,0.4,1.1,0.6,1.7c0.1,0.2,0.1,0.3,0.2,0.5
		c0.1,0.2,0.1,0.4,0.2,0.6c0.1,0.2,0.1,0.4,0.2,0.5c0.1,0.2,0.1,0.3,0.2,0.5c0,0-0.1,0-0.1,0c0,0,0,0-0.1,0c0,0,0,0-0.1,0
		c0,0,0,0-0.1,0c-0.1,0-0.1-0.1-0.3-0.2c-0.1-0.1-0.3-0.2-0.4-0.2c-0.2-0.1-0.3-0.2-0.5-0.3c-0.2-0.1-0.4-0.2-0.6-0.3
		c-0.2-0.1-0.4-0.2-0.5-0.3c-0.2-0.1-0.3-0.1-0.4-0.2c-0.1,0-0.2-0.1-0.3-0.1c-0.1,0-0.2-0.1-0.3-0.1l-2.1-1L102.7,36.8L102.7,36.8
		L102.7,36.8z"/>
	<path fill="#AC8643" d="M108.9,35.6c0-0.2-0.1-0.4-0.1-0.5c0-0.1-0.1-0.3-0.1-0.4c0-0.1-0.1-0.2-0.1-0.3c0-0.1-0.1-0.2-0.1-0.4
		c0-0.1-0.1-0.3-0.1-0.5c0-0.2-0.1-0.4-0.2-0.6c0.1,0,0.1,0,0.2,0c0.1,0,0.1,0,0.3,0c0.1,0,0.2-0.1,0.3-0.1c0.1,0,0.1-0.1,0.2-0.1
		c0.1,0.5,0.2,1,0.3,1.5c0.1,0.5,0.2,1,0.3,1.4c0.1,0.4,0.2,0.7,0.2,1c0.1,0.3,0.1,0.5,0.2,0.7c0.1,0.2,0.1,0.4,0.2,0.6
		c0,0.2,0.1,0.3,0.1,0.5c-0.1,0-0.2,0-0.2,0c-0.1,0-0.2,0-0.3,0c-0.1,0-0.2,0-0.2,0.1c-0.1,0-0.1,0.1-0.2,0.1c0-0.2-0.1-0.4-0.1-0.6
		c0-0.2-0.1-0.4-0.1-0.6c0-0.2-0.1-0.4-0.2-0.7C109.1,36.4,109,36,108.9,35.6L108.9,35.6L108.9,35.6z"/>
	<path fill="#AC8643" d="M113.9,36.7c0.1-0.4,0.2-0.7,0.3-1c0.1-0.3,0.2-0.6,0.2-0.9c0.1-0.3,0.1-0.6,0.2-0.9
		c0.1-0.3,0.1-0.7,0.2-1.1c0-0.1,0-0.3,0.1-0.4c0-0.1,0-0.2,0-0.3c0-0.1,0-0.2,0-0.2c0-0.1,0-0.1,0-0.2c0.1,0,0.1,0,0.2,0
		c0.1,0,0.1,0,0.2,0c0,0,0.1,0,0.2,0c0.1,0,0.1,0,0.2-0.1c0,0-0.1,0.2-0.1,0.4c-0.1,0.2-0.1,0.4-0.2,0.7c-0.1,0.3-0.2,0.6-0.3,1
		c-0.1,0.4-0.2,0.8-0.3,1.2c-0.1,0.4-0.2,0.9-0.3,1.3c-0.1,0.5-0.2,0.9-0.3,1.3c0,0-0.1,0-0.1,0c-0.1,0-0.1,0-0.2,0c0,0-0.1,0-0.1,0
		c-0.1,0-0.1,0-0.2,0.1c0-0.1-0.1-0.3-0.3-0.5c-0.1-0.3-0.3-0.5-0.5-0.9c-0.2-0.3-0.4-0.7-0.6-1.1c-0.2-0.4-0.4-0.8-0.6-1.1
		c-0.2-0.4-0.4-0.7-0.6-1c-0.2-0.3-0.4-0.6-0.5-0.7c0.1,0,0.1,0,0.2,0c0.1,0,0.2,0,0.3,0c0.1,0,0.2,0,0.3,0c0.1,0,0.2,0,0.3-0.1
		c0.1,0.2,0.2,0.4,0.3,0.6c0.1,0.2,0.2,0.5,0.4,0.7c0.1,0.3,0.3,0.5,0.4,0.8c0.2,0.3,0.3,0.6,0.5,0.8c0.2,0.3,0.3,0.5,0.5,0.8
		C113.6,36.3,113.7,36.5,113.9,36.7L113.9,36.7L113.9,36.7z"/>
	<path fill="#AC8643" d="M117.7,34.1c0.3,0,0.7,0,1,0c0.3,0,0.6,0,1-0.1c0,0,0,0.1,0,0.1c0,0,0,0.1,0,0.2c0,0,0,0.1,0,0.1
		c0,0,0,0.1,0,0.1c-0.2,0-0.4,0-0.7,0c-0.2,0-0.4,0-0.6,0c-0.1,0-0.2,0-0.3,0c-0.1,0-0.2,0-0.3,0c0,0.2,0,0.4,0,0.5
		c0,0.2,0,0.4,0,0.5c0,0.1,0,0.2,0,0.4c0,0.1,0,0.2,0,0.4c0,0.1,0,0.2,0,0.3c0,0.1,0,0.2,0,0.2c0.3,0,0.6,0,0.9,0
		c0.3,0,0.8-0.1,1.3-0.1c0,0,0,0.1,0,0.1s0,0.1,0,0.2c0,0.1,0,0.1,0,0.1c0,0,0,0.1,0,0.1c-0.2,0-0.4,0-0.6,0c-0.2,0-0.4,0-0.6,0
		c-0.3,0-0.6,0-1,0c-0.3,0-0.6,0-1,0.1c0-0.2,0-0.3,0-0.5c0-0.2,0-0.4,0-0.6c0-0.2,0-0.5,0-0.8c0-0.3,0-0.7,0-1.1c0-0.2,0-0.4,0-0.7
		c0-0.2,0-0.5,0-0.7c0-0.2,0-0.5,0-0.7c0-0.2,0-0.5-0.1-0.7c0.3,0,0.6,0,0.9,0c0.3,0,0.6,0,0.9,0c0.2,0,0.4,0,0.6,0
		c0.2,0,0.4,0,0.6-0.1c0,0,0,0.1,0,0.1c0,0,0,0.1,0,0.2c0,0.1,0,0.1,0,0.1c0,0,0,0.1,0,0.1c-0.1,0-0.2,0-0.2,0c-0.1,0-0.2,0-0.3,0
		c-0.1,0-0.2,0-0.3,0c-0.1,0-0.3,0-0.5,0c-0.1,0-0.3,0-0.4,0c-0.1,0-0.2,0-0.4,0c0,0.1,0,0.2,0,0.2c0,0.1,0,0.1,0,0.2
		c0,0.1,0,0.1,0,0.2c0,0.1,0,0.2,0,0.3c0,0.1,0,0.2,0,0.3c0,0.1,0,0.2,0,0.2c0,0.1,0,0.1,0,0.2C117.7,33.9,117.7,33.9,117.7,34.1
		L117.7,34.1L117.7,34.1z"/>
	<path fill="#AC8643" d="M125.1,37.5c-0.1,0-0.2,0-0.2,0c-0.1,0-0.2,0-0.2,0c-0.1,0-0.2,0-0.3,0c-0.1,0-0.2,0-0.3,0
		c-0.2-0.3-0.3-0.6-0.5-0.9c-0.2-0.3-0.3-0.5-0.5-0.8c-0.1-0.2-0.3-0.5-0.4-0.7c-0.1-0.2-0.3-0.4-0.4-0.6l-0.2,0
		c0,0.3,0,0.7-0.1,1.1c0,0.4,0,1-0.1,1.7c-0.1,0-0.1,0-0.2-0.1c-0.1,0-0.2,0-0.2,0c-0.1,0-0.2,0-0.3,0c-0.1,0-0.1,0-0.2,0
		c0.1-0.5,0.1-1,0.2-1.5c0-0.5,0.1-1.1,0.1-1.7c0-0.4,0-0.8,0.1-1.2c0-0.4,0-0.9,0.1-1.3c0.2,0,0.3,0,0.4,0.1c0.1,0,0.2,0,0.3,0
		c0,0,0.1,0,0.2,0c0.1,0,0.2,0,0.3,0c0.1,0,0.2,0,0.3,0c0.1,0,0.2,0,0.2,0c0.2,0,0.5,0,0.6,0.1c0.2,0,0.3,0.1,0.4,0.1
		c0.1,0,0.2,0.1,0.3,0.1c0.1,0,0.1,0.1,0.2,0.2c0.2,0.1,0.3,0.3,0.3,0.5c0,0.2,0.1,0.4,0.1,0.6c0,0.3-0.1,0.5-0.2,0.7
		c-0.1,0.2-0.3,0.3-0.5,0.4c-0.2,0.1-0.4,0.2-0.6,0.2c-0.2,0-0.3,0.1-0.5,0.1c0,0.1,0.1,0.2,0.2,0.4c0.1,0.2,0.2,0.4,0.4,0.6
		c0.1,0.2,0.3,0.4,0.4,0.6c0.2,0.2,0.3,0.4,0.4,0.6c0.1,0.2,0.2,0.4,0.3,0.5C125,37.3,125.1,37.4,125.1,37.5L125.1,37.5L125.1,37.5
		L125.1,37.5z M124,33.2c0-0.2,0-0.4-0.1-0.6c-0.1-0.1-0.2-0.3-0.3-0.4c-0.1-0.1-0.3-0.1-0.5-0.2c-0.2,0-0.3-0.1-0.5-0.1
		c-0.1,0-0.2,0-0.3,0c-0.1,0-0.2,0-0.2,0c0,0.2,0,0.4-0.1,0.6c0,0.2,0,0.4,0,0.6c0,0.1,0,0.2,0,0.3c0,0.1,0,0.2,0,0.3
		c0,0.1,0,0.2,0,0.3c0,0.1,0,0.2,0,0.2c0.1,0,0.1,0,0.2,0c0.1,0,0.1,0,0.2,0c0.1,0,0.2,0,0.4,0c0.2,0,0.3,0,0.5-0.1
		c0.2-0.1,0.3-0.2,0.5-0.3C123.9,33.7,124,33.4,124,33.2L124,33.2L124,33.2z"/>
	<path fill="#AC8643" d="M129.3,33.5c0-0.1,0-0.2-0.1-0.3c0-0.1-0.1-0.2-0.2-0.3c-0.1-0.1-0.2-0.2-0.3-0.2c-0.1-0.1-0.3-0.1-0.5-0.2
		c-0.2,0-0.4,0-0.6,0c-0.1,0-0.3,0.1-0.4,0.2c-0.1,0.1-0.2,0.2-0.2,0.3c0,0.1-0.1,0.2-0.1,0.3c0,0.2,0,0.3,0,0.4
		c0,0.1,0.1,0.2,0.2,0.3c0.1,0.1,0.2,0.2,0.3,0.3c0.1,0.1,0.2,0.1,0.3,0.2c0.2,0.1,0.4,0.2,0.5,0.3c0.1,0.1,0.2,0.1,0.3,0.2
		c0.1,0.1,0.2,0.1,0.2,0.2c0.1,0.1,0.1,0.1,0.2,0.2c0.1,0.1,0.1,0.2,0.2,0.3c0,0.1,0.1,0.2,0.1,0.3c0,0.1,0,0.2,0,0.3
		c0,0.1,0,0.2,0,0.3c0,0.2-0.1,0.4-0.2,0.6c-0.1,0.2-0.3,0.4-0.5,0.5c-0.2,0.1-0.4,0.3-0.7,0.3c-0.3,0.1-0.6,0.1-1,0
		c-0.3,0-0.5-0.1-0.8-0.2c-0.2-0.1-0.5-0.3-0.6-0.5c0.1-0.2,0.2-0.4,0.2-0.5c0-0.1,0.1-0.2,0.1-0.3l0.1,0c0.1,0.3,0.2,0.5,0.4,0.7
		c0.2,0.2,0.5,0.3,0.8,0.4c0.2,0,0.4,0,0.6,0c0.2,0,0.3-0.1,0.4-0.2c0.1-0.1,0.2-0.2,0.3-0.3c0.1-0.1,0.1-0.2,0.1-0.4
		c0-0.2,0-0.3,0-0.4c0-0.1-0.1-0.2-0.2-0.3c-0.1-0.1-0.2-0.2-0.3-0.3c-0.1-0.1-0.2-0.2-0.4-0.2c-0.2-0.1-0.4-0.3-0.5-0.3
		c-0.1-0.1-0.2-0.2-0.3-0.2c-0.1-0.1-0.1-0.1-0.2-0.2c0,0-0.1-0.1-0.1-0.2c-0.1-0.1-0.2-0.3-0.2-0.5c0-0.2,0-0.4,0-0.6
		c0-0.3,0.1-0.5,0.3-0.7c0.1-0.2,0.3-0.3,0.5-0.4c0.2-0.1,0.4-0.2,0.6-0.2c0.2,0,0.5,0,0.7,0c0.2,0,0.3,0.1,0.5,0.1
		c0.1,0.1,0.3,0.1,0.4,0.2c0.1,0.1,0.2,0.1,0.3,0.2c0.1,0.1,0.1,0.1,0.2,0.2c0,0-0.1,0.1-0.1,0.1c0,0-0.1,0.1-0.1,0.2
		c0,0.1-0.1,0.1-0.1,0.2c0,0.1-0.1,0.1-0.1,0.2L129.3,33.5L129.3,33.5L129.3,33.5z"/>
	<path fill="#AC8643" d="M131,35.7c0.1-0.2,0.1-0.4,0.1-0.5c0-0.1,0.1-0.3,0.1-0.4c0-0.1,0.1-0.2,0.1-0.3c0-0.1,0.1-0.2,0.1-0.4
		c0-0.1,0.1-0.3,0.1-0.5c0-0.2,0.1-0.4,0.1-0.6c0.1,0,0.1,0.1,0.2,0.1s0.1,0.1,0.2,0.1c0.1,0,0.2,0,0.3,0.1c0.1,0,0.1,0,0.2,0
		c-0.2,0.5-0.3,0.9-0.4,1.4c-0.1,0.5-0.3,0.9-0.4,1.4c-0.1,0.4-0.2,0.7-0.3,0.9c-0.1,0.3-0.1,0.5-0.2,0.7c-0.1,0.2-0.1,0.4-0.1,0.6
		c0,0.2-0.1,0.3-0.1,0.5c-0.1,0-0.1-0.1-0.2-0.1c-0.1,0-0.2-0.1-0.3-0.1c-0.1,0-0.2,0-0.2,0c-0.1,0-0.1,0-0.2,0
		c0.1-0.2,0.1-0.4,0.2-0.6c0.1-0.2,0.1-0.4,0.2-0.6c0.1-0.2,0.1-0.4,0.2-0.7C130.8,36.4,130.9,36.1,131,35.7L131,35.7L131,35.7z"/>
	<path fill="#AC8643" d="M134.6,36.5c0.1-0.4,0.3-0.7,0.4-1c0.1-0.3,0.2-0.6,0.3-0.9c-0.4-0.1-0.8-0.3-1.1-0.3
		c-0.3-0.1-0.5-0.1-0.7-0.2c0,0,0-0.1,0.1-0.1c0,0,0-0.1,0.1-0.1c0-0.1,0-0.1,0-0.2c0,0,0-0.1,0-0.1c0.1,0.1,0.3,0.1,0.4,0.2
		c0.2,0.1,0.4,0.1,0.5,0.2c0.2,0.1,0.4,0.1,0.6,0.2c0.2,0.1,0.4,0.1,0.5,0.2c0.2,0.1,0.4,0.1,0.6,0.2c0.2,0.1,0.4,0.1,0.6,0.2
		c0.2,0.1,0.4,0.1,0.5,0.2c0.2,0.1,0.3,0.1,0.4,0.1c0,0,0,0.1-0.1,0.1c0,0,0,0.1-0.1,0.1c0,0.1,0,0.1,0,0.2c0,0,0,0.1,0,0.1
		c-0.1-0.1-0.3-0.2-0.5-0.3c-0.3-0.1-0.6-0.3-1.1-0.4c-0.1,0.3-0.2,0.5-0.3,0.8c-0.1,0.3-0.2,0.5-0.3,0.8c-0.1,0.2-0.2,0.5-0.3,0.8
		c-0.1,0.3-0.2,0.5-0.3,0.8c-0.1,0.3-0.2,0.6-0.3,0.9c-0.1,0.3-0.2,0.6-0.3,0.9c-0.1-0.1-0.2-0.1-0.3-0.2c-0.1,0-0.1-0.1-0.2-0.1
		c-0.1,0-0.2-0.1-0.2-0.1c-0.1,0-0.1,0-0.2,0c0.2-0.4,0.4-0.9,0.6-1.4C134.2,37.6,134.4,37.1,134.6,36.5L134.6,36.5L134.6,36.5z"/>
	<path fill="#AC8643" d="M139.4,40c0,0.1-0.1,0.2-0.1,0.3c-0.1,0.1-0.1,0.3-0.2,0.4c-0.1,0.2-0.2,0.3-0.2,0.5
		c-0.1,0.2-0.1,0.3-0.2,0.5c-0.1-0.1-0.1-0.1-0.2-0.1c-0.1,0-0.1-0.1-0.2-0.1c-0.1-0.1-0.2-0.1-0.3-0.1c-0.1,0-0.1,0-0.2-0.1
		c0.1-0.1,0.2-0.3,0.2-0.4c0.1-0.1,0.1-0.3,0.2-0.4c0.1-0.1,0.2-0.3,0.3-0.5c0.1-0.2,0.2-0.4,0.4-0.7c0-0.5-0.1-0.8-0.1-1.2
		c0-0.3,0-0.6-0.1-0.9c0-0.2,0-0.4-0.1-0.6c0-0.2,0-0.3,0-0.5c0-0.1,0-0.3,0-0.4c0-0.1,0-0.3,0-0.4c0.1,0.1,0.2,0.1,0.3,0.2
		c0.1,0,0.2,0.1,0.2,0.1c0.1,0.1,0.2,0.1,0.3,0.1c0.1,0,0.2,0.1,0.2,0.1c0,0.5,0,0.9,0,1.3c0,0.4,0,0.8,0.1,1.2c0,0.1,0,0.2,0,0.3
		c0,0.1,0,0.2,0,0.2c0,0.1,0,0.1,0,0.2c0,0,0,0.1,0,0.1c0,0,0,0,0.1,0c0,0,0.1-0.1,0.2-0.1c0.1,0,0.1-0.1,0.2-0.1
		c0.1,0,0.1-0.1,0.1-0.1c0.4-0.2,0.7-0.5,1.1-0.8c0.3-0.3,0.7-0.5,1-0.8c0,0,0.1,0.1,0.2,0.1c0.1,0,0.1,0.1,0.2,0.1
		c0.1,0,0.1,0.1,0.2,0.1c0.1,0,0.1,0,0.2,0c-0.1,0-0.2,0.1-0.4,0.2c-0.2,0.1-0.3,0.2-0.5,0.3c-0.2,0.1-0.4,0.2-0.6,0.4
		c-0.2,0.1-0.4,0.3-0.6,0.4c-0.2,0.1-0.4,0.2-0.5,0.4c-0.2,0.1-0.3,0.2-0.4,0.3c-0.1,0-0.1,0.1-0.2,0.1c0,0-0.1,0.1-0.1,0.1
		c0,0.1-0.1,0.1-0.1,0.2C139.4,39.8,139.4,39.9,139.4,40L139.4,40L139.4,40z"/>
	<path fill="#AC8643" d="M145.9,41.2c0.2,0.1,0.3,0.2,0.4,0.4c0.1,0.2,0.2,0.3,0.2,0.5c0,0.2,0,0.4,0,0.5c0,0.2-0.1,0.4-0.2,0.5
		c-0.1,0.2-0.2,0.3-0.4,0.4c-0.2,0.1-0.3,0.2-0.5,0.2c-0.2,0-0.4,0-0.5,0c-0.2,0-0.4-0.1-0.5-0.2c-0.2-0.1-0.3-0.2-0.4-0.4
		c-0.1-0.2-0.2-0.3-0.2-0.5c0-0.2,0-0.4,0-0.5c0-0.2,0.1-0.4,0.2-0.5c0.1-0.2,0.3-0.3,0.4-0.4c0.2-0.1,0.3-0.2,0.5-0.2
		c0.2,0,0.4,0,0.5,0C145.6,41,145.7,41.1,145.9,41.2L145.9,41.2L145.9,41.2z"/>
	<path fill="#AC8643" d="M152.2,45.8c0-0.1,0.1-0.2,0.1-0.3c0-0.1,0-0.2,0-0.3c0-0.1-0.1-0.2-0.1-0.4c-0.1-0.1-0.2-0.3-0.3-0.4
		c-0.2-0.2-0.3-0.3-0.5-0.3c-0.2,0-0.3-0.1-0.4,0c-0.1,0-0.2,0.1-0.3,0.1c-0.1,0.1-0.2,0.1-0.2,0.2c-0.1,0.1-0.2,0.2-0.2,0.4
		c0,0.1,0,0.2,0,0.4c0,0.1,0,0.2,0.1,0.4c0,0.1,0.1,0.2,0.1,0.3c0.1,0.2,0.2,0.4,0.3,0.5c0.1,0.1,0.1,0.3,0.2,0.4
		c0,0.1,0.1,0.2,0.1,0.3c0,0.1,0,0.2,0,0.3c0,0.1,0,0.2,0,0.3c0,0.1,0,0.2-0.1,0.3c0,0.1-0.1,0.2-0.1,0.3c-0.1,0.1-0.1,0.1-0.2,0.2
		c-0.1,0.2-0.3,0.3-0.5,0.4c-0.2,0.1-0.4,0.2-0.7,0.2c-0.2,0-0.5,0-0.8-0.1c-0.3-0.1-0.5-0.3-0.8-0.5c-0.2-0.2-0.4-0.4-0.5-0.6
		c-0.1-0.2-0.2-0.5-0.3-0.7c0.2-0.1,0.3-0.2,0.4-0.3c0.1-0.1,0.2-0.1,0.2-0.2l0.1,0.1c-0.1,0.3-0.1,0.5,0,0.8
		c0.1,0.3,0.2,0.5,0.5,0.8c0.2,0.1,0.3,0.2,0.5,0.3c0.2,0.1,0.3,0.1,0.5,0.1c0.1,0,0.3,0,0.4-0.1c0.1-0.1,0.2-0.1,0.3-0.2
		c0.1-0.1,0.2-0.2,0.2-0.4c0-0.1,0.1-0.3,0-0.4c0-0.1,0-0.3-0.1-0.4c0-0.1-0.1-0.3-0.2-0.4c-0.1-0.2-0.2-0.4-0.3-0.6
		c-0.1-0.1-0.1-0.3-0.1-0.4c0-0.1-0.1-0.2-0.1-0.2c0-0.1,0-0.1,0-0.2c0-0.2,0-0.4,0.1-0.5c0.1-0.2,0.2-0.3,0.3-0.5
		c0.2-0.2,0.4-0.3,0.6-0.4c0.2-0.1,0.4-0.1,0.6-0.1c0.2,0,0.4,0.1,0.6,0.2c0.2,0.1,0.4,0.2,0.6,0.4c0.1,0.1,0.2,0.2,0.3,0.3
		c0.1,0.1,0.2,0.2,0.2,0.4c0.1,0.1,0.1,0.2,0.2,0.3c0,0.1,0.1,0.2,0.1,0.2c0,0-0.1,0-0.1,0.1c-0.1,0-0.1,0-0.2,0.1
		c-0.1,0-0.1,0.1-0.2,0.1C152.4,45.8,152.4,45.9,152.2,45.8L152.2,45.8L152.2,45.8L152.2,45.8z"/>
	<path fill="#AC8643" d="M152.3,49.5c-0.2,0.1-0.5,0.2-0.9,0.3c-0.4,0.1-0.8,0.3-1.3,0.5c0,0,0-0.1-0.1-0.1c0,0-0.1-0.1-0.1-0.2
		c-0.1-0.1-0.1-0.1-0.1-0.1c0,0-0.1-0.1-0.1-0.1c0.3-0.1,0.6-0.2,0.9-0.3c0.3-0.1,0.7-0.2,1.1-0.3c0.4-0.1,0.7-0.2,1.1-0.3
		c0.4-0.1,0.7-0.2,1.1-0.3c0.4-0.1,0.7-0.2,1-0.3c0.3-0.1,0.6-0.2,0.9-0.3c0,0,0,0.1,0,0.1c0,0,0,0.1,0.1,0.1c0,0,0,0.1,0.1,0.1
		c0,0,0,0,0.1,0.1c-0.2,0.3-0.3,0.6-0.5,1c-0.2,0.4-0.4,0.8-0.6,1.2c-0.2,0.4-0.4,0.8-0.6,1.3c-0.2,0.4-0.4,0.8-0.5,1.1
		c-0.2,0.3-0.3,0.6-0.4,0.8c-0.1,0.2-0.1,0.3-0.1,0.3c0-0.1-0.1-0.1-0.1-0.2c0-0.1-0.1-0.1-0.2-0.2c-0.1-0.1-0.1-0.2-0.2-0.2
		c-0.1-0.1-0.1-0.1-0.2-0.2c0.3-0.4,0.5-0.8,0.7-1.2s0.3-0.6,0.4-0.9L152.3,49.5L152.3,49.5L152.3,49.5z M154.8,48.7l-2.1,0.7
		l1.1,1.3L154.8,48.7L154.8,48.7L154.8,48.7z"/>
	<path fill="#AC8643" d="M156,53c0.2-0.1,0.3-0.2,0.4-0.3c0.1-0.1,0.2-0.2,0.3-0.2c0.1-0.1,0.2-0.1,0.3-0.2c0.1-0.1,0.2-0.1,0.3-0.2
		c0.1-0.1,0.2-0.2,0.4-0.3c0.1-0.1,0.3-0.2,0.5-0.4c0,0.1,0.1,0.1,0.1,0.2c0,0.1,0.1,0.1,0.1,0.2c0.1,0.1,0.1,0.2,0.2,0.2
		c0,0,0.1,0.1,0.1,0.1c-0.4,0.3-0.8,0.5-1.2,0.8c-0.4,0.3-0.8,0.6-1.2,0.8c-0.3,0.2-0.6,0.4-0.8,0.6c-0.2,0.2-0.4,0.3-0.6,0.4
		c-0.2,0.1-0.3,0.2-0.5,0.3c-0.1,0.1-0.3,0.2-0.4,0.3c0-0.1-0.1-0.1-0.1-0.2c0-0.1-0.1-0.2-0.1-0.2c-0.1-0.1-0.1-0.1-0.2-0.2
		c0,0-0.1-0.1-0.1-0.1c0.2-0.1,0.4-0.2,0.5-0.3c0.2-0.1,0.3-0.2,0.5-0.3c0.2-0.1,0.4-0.2,0.6-0.4C155.4,53.4,155.7,53.2,156,53
		L156,53L156,53z"/>
	<path fill="#AC8643" d="M158.5,55.1c-0.3,0.2-0.6,0.3-0.8,0.4c-0.2,0.1-0.4,0.2-0.6,0.4c-0.2,0.1-0.3,0.2-0.5,0.3
		c-0.1,0.1-0.3,0.2-0.4,0.3c-0.1,0.1-0.3,0.2-0.4,0.3c-0.1,0.1-0.3,0.2-0.5,0.3c0,0,0-0.1,0-0.2c0-0.1,0-0.1-0.1-0.2
		c0-0.1-0.1-0.1-0.1-0.2c0,0-0.1-0.1-0.1-0.1c0.1,0,0.2-0.1,0.4-0.2c0.2-0.1,0.4-0.2,0.6-0.3c0.2-0.1,0.5-0.2,0.7-0.4
		c0.2-0.1,0.5-0.2,0.6-0.3c0.1,0,0.2-0.1,0.4-0.2c0.2-0.1,0.4-0.2,0.5-0.3c0.2-0.1,0.4-0.2,0.5-0.3c0.2-0.1,0.3-0.2,0.4-0.2l0.9-0.5
		c0,0,0,0,0,0.1c0,0,0,0,0,0.1c0,0,0,0,0,0.1c0,0,0,0,0.1,0.1l-0.2,0.4c0,0.1-0.1,0.2-0.1,0.2c0,0.1-0.1,0.2-0.1,0.3
		c0,0.1-0.1,0.2-0.1,0.3c0,0.1-0.1,0.3-0.1,0.5c-0.1,0.4-0.2,0.7-0.3,1c-0.1,0.3-0.2,0.5-0.2,0.7c-0.1,0.2-0.1,0.4-0.2,0.6
		c-0.1,0.2-0.1,0.3-0.2,0.5c-0.1,0.2-0.1,0.3-0.2,0.5c-0.1,0.2-0.1,0.4-0.2,0.6l0.3-0.1c0.5-0.3,0.9-0.5,1.2-0.7
		c0.3-0.2,0.6-0.3,0.9-0.5c0.3-0.2,0.5-0.3,0.7-0.4c0.2-0.1,0.5-0.3,0.7-0.5c0,0,0,0.1,0,0.1c0,0.1,0,0.1,0.1,0.2
		c0,0.1,0.1,0.1,0.1,0.2c0,0,0.1,0.1,0.1,0.1c-0.6,0.2-1.1,0.5-1.6,0.8c-0.5,0.3-1.1,0.6-1.6,0.9c-0.1,0.1-0.3,0.2-0.5,0.3
		c-0.2,0.1-0.3,0.2-0.5,0.3c-0.2,0.1-0.3,0.2-0.5,0.3c-0.2,0.1-0.3,0.2-0.4,0.3c0,0,0-0.1,0-0.1c0,0,0,0,0-0.1c0,0,0,0,0-0.1
		c0,0,0,0,0-0.1c0-0.1,0.1-0.2,0.1-0.3c0.1-0.1,0.1-0.3,0.2-0.5c0.1-0.2,0.1-0.4,0.2-0.6c0.1-0.2,0.1-0.4,0.2-0.6
		c0.1-0.2,0.1-0.4,0.2-0.6c0.1-0.2,0.1-0.3,0.1-0.5c0-0.1,0-0.2,0.1-0.3c0-0.1,0.1-0.2,0.1-0.3l0.7-2.2L158.5,55.1L158.5,55.1
		L158.5,55.1z"/>
	<path fill="#AC8643" d="M161.2,61.9c0.4-0.1,0.7-0.3,1-0.4c0.3-0.1,0.6-0.3,0.9-0.4c-0.2-0.4-0.3-0.7-0.4-1
		c-0.1-0.3-0.2-0.5-0.3-0.7c0,0,0.1,0,0.1,0c0,0,0.1,0,0.1-0.1c0.1,0,0.1,0,0.1-0.1c0,0,0.1,0,0.1-0.1c0,0.1,0.1,0.3,0.1,0.5
		c0.1,0.2,0.1,0.4,0.2,0.6c0.1,0.2,0.1,0.4,0.2,0.6c0.1,0.2,0.1,0.4,0.2,0.5c0.1,0.2,0.2,0.4,0.2,0.6c0.1,0.2,0.2,0.4,0.2,0.6
		c0.1,0.2,0.1,0.3,0.2,0.5c0.1,0.2,0.1,0.3,0.2,0.4c0,0-0.1,0-0.1,0c0,0-0.1,0-0.2,0.1c-0.1,0-0.1,0-0.1,0.1c0,0-0.1,0-0.1,0.1
		c0-0.1-0.1-0.3-0.2-0.6c-0.1-0.3-0.2-0.6-0.4-1.1c-0.3,0.1-0.5,0.2-0.8,0.3c-0.3,0.1-0.5,0.2-0.8,0.3c-0.2,0.1-0.5,0.2-0.7,0.3
		c-0.3,0.1-0.5,0.2-0.8,0.3c-0.3,0.1-0.6,0.2-0.9,0.4c-0.3,0.1-0.6,0.3-0.9,0.4c0-0.1-0.1-0.3-0.1-0.3c0-0.1,0-0.1-0.1-0.2
		c0-0.1-0.1-0.2-0.1-0.2c0-0.1-0.1-0.1-0.1-0.1c0.4-0.1,0.9-0.3,1.5-0.5C160.2,62.3,160.7,62.1,161.2,61.9L161.2,61.9L161.2,61.9z"
		/>
	<path fill="#AC8643" d="M164.9,70.5c-0.2,0-0.4,0.1-0.5,0c-0.2,0-0.3,0-0.4-0.1c-0.1-0.1-0.2-0.1-0.3-0.2c-0.1-0.1-0.2-0.1-0.3-0.2
		c-0.1-0.1-0.2-0.2-0.3-0.3c-0.1-0.1-0.1-0.3-0.2-0.4c-0.1-0.1-0.1-0.3-0.2-0.4c0-0.1-0.1-0.3-0.1-0.4c0-0.1,0-0.1,0-0.2
		c0-0.1,0-0.1,0-0.2c-0.3,0.1-0.5,0.1-0.8,0.2c-0.2,0.1-0.4,0.1-0.6,0.2c-0.2,0-0.4,0.1-0.6,0.2c-0.2,0.1-0.4,0.1-0.6,0.2
		c0-0.1,0-0.1,0-0.2c0-0.1,0-0.2,0-0.3c0-0.1-0.1-0.2-0.1-0.2c0-0.1,0-0.1-0.1-0.2c0.6-0.1,1.2-0.2,1.7-0.3c0.6-0.1,1.1-0.3,1.7-0.4
		c0.3-0.1,0.6-0.1,0.8-0.2c0.2-0.1,0.4-0.1,0.6-0.1c0.2,0,0.3-0.1,0.4-0.1c0.1,0,0.3-0.1,0.4-0.1c0,0.2,0.1,0.3,0.1,0.6
		c0,0.2,0.1,0.5,0.2,0.8c0.1,0.3,0.1,0.6,0.2,0.9c0,0.3,0,0.5,0,0.7c-0.1,0.3-0.2,0.5-0.4,0.7C165.4,70.3,165.2,70.4,164.9,70.5
		L164.9,70.5L164.9,70.5z M164.6,69.6c0.2,0,0.3-0.1,0.4-0.2c0.1-0.1,0.2-0.2,0.3-0.3c0.1-0.2,0.1-0.4,0.2-0.6c0-0.2,0-0.4-0.1-0.6
		c0-0.1,0-0.1-0.1-0.2c0-0.1-0.1-0.2-0.1-0.2c-0.4,0.1-0.7,0.2-1.1,0.3c-0.4,0.1-0.8,0.2-1.2,0.3c0,0.2,0.1,0.4,0.2,0.6
		c0.1,0.2,0.2,0.4,0.3,0.6c0.1,0.2,0.3,0.3,0.5,0.4C164,69.7,164.3,69.7,164.6,69.6L164.6,69.6L164.6,69.6z"/>
	<path fill="#AC8643" d="M164.1,72.5c0,0.3,0.1,0.7,0.1,1c0,0.3,0.1,0.6,0.2,1c0,0-0.1,0-0.1,0c0,0-0.1,0-0.2,0c0,0-0.1,0-0.1,0
		c0,0-0.1,0-0.1,0c0-0.2,0-0.4,0-0.7c0-0.2,0-0.4-0.1-0.6c0-0.1,0-0.2,0-0.3c0-0.1,0-0.2-0.1-0.3c-0.2,0-0.4,0-0.5,0.1
		c-0.2,0-0.4,0-0.5,0.1c-0.1,0-0.2,0-0.3,0c-0.1,0-0.2,0-0.4,0.1c-0.1,0-0.2,0-0.3,0.1c-0.1,0-0.2,0-0.2,0c0,0.3,0.1,0.6,0.1,0.9
		c0.1,0.3,0.1,0.8,0.3,1.2c0,0-0.1,0-0.1,0c0,0-0.1,0-0.2,0c-0.1,0-0.1,0-0.1,0c0,0-0.1,0-0.1,0c0-0.2,0-0.4,0-0.6s0-0.4-0.1-0.6
		c0-0.3-0.1-0.6-0.1-1c-0.1-0.3-0.1-0.6-0.2-1c0.2,0,0.3,0,0.5,0c0.2,0,0.3,0,0.6,0c0.2,0,0.5,0,0.8-0.1c0.3,0,0.7-0.1,1.1-0.1
		c0.2,0,0.4-0.1,0.7-0.1c0.2,0,0.5-0.1,0.7-0.1c0.2,0,0.5-0.1,0.7-0.1c0.2,0,0.4-0.1,0.7-0.1c0,0.3,0,0.6,0.1,0.9
		c0,0.3,0.1,0.6,0.1,0.9c0,0.2,0.1,0.4,0.1,0.6c0,0.2,0.1,0.4,0.1,0.6c0,0-0.1,0-0.1,0c0,0-0.1,0-0.2,0c-0.1,0-0.1,0-0.1,0
		c0,0-0.1,0-0.1,0c0-0.1,0-0.2,0-0.2c0-0.1,0-0.2,0-0.3c0-0.1,0-0.2,0-0.3c0-0.1,0-0.3-0.1-0.5c0-0.1,0-0.3,0-0.4
		c0-0.1,0-0.2-0.1-0.4c-0.1,0-0.2,0-0.2,0c-0.1,0-0.1,0-0.2,0c-0.1,0-0.1,0-0.2,0c-0.1,0-0.2,0-0.3,0c-0.1,0-0.2,0-0.3,0
		c-0.1,0-0.2,0-0.2,0c-0.1,0-0.1,0-0.2,0C164.3,72.5,164.2,72.5,164.1,72.5L164.1,72.5L164.1,72.5z"/>
	<path fill="#AC8643" d="M164.5,77c0.4,0,0.7,0,1.1,0c0.3,0,0.7,0,0.9,0c0-0.4,0-0.8-0.1-1.1c0-0.3-0.1-0.5-0.1-0.7c0,0,0.1,0,0.1,0
		c0,0,0.1,0,0.2,0c0.1,0,0.1,0,0.2,0c0,0,0.1,0,0.1,0c0,0.1,0,0.3,0,0.5c0,0.2,0,0.4,0,0.6c0,0.2,0,0.4,0,0.6c0,0.2,0,0.4,0,0.6
		c0,0.2,0,0.4,0,0.6c0,0.2,0,0.4,0,0.6c0,0.2,0,0.4,0,0.5c0,0.2,0,0.3,0,0.5c0,0-0.1,0-0.1,0c0,0-0.1,0-0.2,0c-0.1,0-0.1,0-0.2,0
		c0,0-0.1,0-0.1,0c0-0.1,0-0.3,0-0.6c0-0.3,0-0.7,0-1.2c-0.3,0-0.6,0-0.9,0c-0.3,0-0.6,0-0.9,0c-0.2,0-0.5,0-0.8,0
		c-0.3,0-0.6,0-0.9,0c-0.3,0-0.6,0-0.9,0c-0.3,0-0.6,0-0.9,0.1c0-0.1,0-0.3,0-0.4c0-0.1,0-0.1,0-0.2c0-0.1,0-0.2,0-0.3
		c0-0.1,0-0.1,0-0.2c0.5,0,1,0,1.5,0C163.4,77.1,164,77.1,164.5,77L164.5,77L164.5,77z"/>
	<path fill="#AC8643" d="M164.5,81.4c0,0.3-0.1,0.7-0.1,1c0,0.3,0,0.6,0,1c0,0-0.1,0-0.1,0c0,0-0.1,0-0.2,0c0,0-0.1,0-0.1,0
		c0,0-0.1,0-0.1,0c0-0.2,0.1-0.4,0.1-0.7c0-0.2,0-0.4,0.1-0.6c0-0.1,0-0.2,0-0.3c0-0.1,0-0.2,0-0.3c-0.2,0-0.4,0-0.5,0
		c-0.2,0-0.4,0-0.5,0c-0.1,0-0.2,0-0.4,0c-0.1,0-0.2,0-0.4,0c-0.1,0-0.2,0-0.3,0c-0.1,0-0.2,0-0.2,0c0,0.3,0,0.6,0,0.9
		c0,0.3,0,0.8,0,1.3c0,0-0.1,0-0.1,0c0,0-0.1,0-0.2,0c-0.1,0-0.1,0-0.1,0c0,0-0.1,0-0.1,0c0-0.2,0.1-0.4,0.1-0.6c0-0.2,0-0.4,0-0.6
		c0-0.3,0-0.6,0-1c0-0.3,0-0.6,0-1c0.2,0,0.3,0,0.5,0.1c0.2,0,0.3,0,0.6,0.1c0.2,0,0.5,0,0.8,0.1c0.3,0,0.7,0.1,1.1,0.1
		c0.2,0,0.4,0,0.7,0c0.2,0,0.5,0,0.7,0c0.2,0,0.5,0,0.7,0c0.2,0,0.5,0,0.7,0c0,0.3-0.1,0.6-0.1,0.9c0,0.3,0,0.6-0.1,0.9
		c0,0.2,0,0.4,0,0.6c0,0.2,0,0.4,0,0.6c0,0-0.1,0-0.1,0c0,0-0.1,0-0.2,0c-0.1,0-0.1,0-0.1,0c0,0-0.1,0-0.1,0c0-0.1,0-0.2,0.1-0.2
		c0-0.1,0-0.2,0.1-0.3c0-0.1,0-0.2,0-0.3s0-0.3,0-0.5c0-0.1,0-0.3,0-0.4c0-0.1,0-0.2,0-0.4c-0.1,0-0.2,0-0.2,0c-0.1,0-0.1,0-0.2,0
		c-0.1,0-0.1,0-0.2,0c-0.1,0-0.2,0-0.3,0c-0.1,0-0.2,0-0.3,0c-0.1,0-0.2,0-0.2,0c-0.1,0-0.1,0-0.2,0
		C164.7,81.4,164.6,81.4,164.5,81.4L164.5,81.4L164.5,81.4z"/>
	<path fill="#AC8643" d="M160.3,88.4c0-0.1,0.1-0.2,0.1-0.2c0-0.1,0-0.2,0.1-0.2c0-0.1,0-0.2,0-0.3c0-0.1,0-0.2,0-0.3
		c0.3-0.1,0.7-0.3,0.9-0.4c0.3-0.1,0.5-0.3,0.8-0.4c0.2-0.1,0.5-0.2,0.7-0.4c0.2-0.1,0.4-0.2,0.7-0.4l0-0.2
		c-0.3-0.1-0.7-0.1-1.1-0.2c-0.4-0.1-1-0.2-1.7-0.2c0-0.1,0.1-0.1,0.1-0.2c0-0.1,0-0.2,0.1-0.2c0-0.1,0-0.2,0-0.3c0-0.1,0-0.1,0-0.2
		c0.5,0.1,1,0.2,1.5,0.3c0.5,0.1,1.1,0.2,1.7,0.3c0.4,0.1,0.8,0.1,1.2,0.2c0.4,0.1,0.9,0.1,1.3,0.2c0,0.2-0.1,0.3-0.1,0.4
		c0,0.1,0,0.2-0.1,0.3c0,0,0,0.1,0,0.2c0,0.1,0,0.2,0,0.3c0,0.1,0,0.2,0,0.3c0,0.1,0,0.2,0,0.2c0,0.2-0.1,0.5-0.1,0.6
		c0,0.2-0.1,0.3-0.1,0.4c0,0.1-0.1,0.2-0.2,0.3c-0.1,0.1-0.1,0.1-0.2,0.2c-0.2,0.1-0.3,0.2-0.5,0.3c-0.2,0-0.4,0-0.6,0
		c-0.3-0.1-0.5-0.2-0.7-0.3c-0.2-0.2-0.3-0.3-0.4-0.5c-0.1-0.2-0.1-0.4-0.1-0.6c0-0.2,0-0.4,0-0.5c-0.1,0-0.2,0.1-0.4,0.2
		c-0.2,0.1-0.4,0.2-0.6,0.3c-0.2,0.1-0.5,0.2-0.7,0.4c-0.2,0.1-0.5,0.2-0.7,0.4c-0.2,0.1-0.4,0.2-0.5,0.3
		C160.5,88.3,160.4,88.4,160.3,88.4L160.3,88.4L160.3,88.4L160.3,88.4z M164.8,87.7c0.2,0,0.4,0,0.6,0c0.2-0.1,0.3-0.2,0.4-0.3
		c0.1-0.1,0.2-0.3,0.2-0.4c0.1-0.2,0.1-0.3,0.1-0.5c0-0.1,0-0.2,0-0.3c0-0.1,0-0.2,0-0.2c-0.2,0-0.4-0.1-0.6-0.1
		c-0.2,0-0.4-0.1-0.6-0.1c-0.1,0-0.2,0-0.3-0.1c-0.1,0-0.2,0-0.3-0.1c-0.1,0-0.2,0-0.3,0c-0.1,0-0.2,0-0.2,0c0,0.1,0,0.1-0.1,0.2
		c0,0.1,0,0.1,0,0.2c0,0.1,0,0.2,0,0.4c0,0.2,0,0.3,0.1,0.5c0,0.2,0.1,0.3,0.3,0.5C164.3,87.6,164.5,87.7,164.8,87.7L164.8,87.7
		L164.8,87.7z"/>
	<path fill="#AC8643" d="M163.9,92.9c0.1,0,0.2,0,0.3,0c0.1,0,0.2-0.1,0.3-0.1c0.1-0.1,0.2-0.2,0.3-0.3c0.1-0.1,0.2-0.3,0.2-0.4
		c0.1-0.2,0.1-0.4,0-0.6c0-0.2-0.1-0.3-0.2-0.4c-0.1-0.1-0.2-0.2-0.3-0.2c-0.1-0.1-0.2-0.1-0.2-0.1c-0.2,0-0.3-0.1-0.4,0
		c-0.1,0-0.2,0.1-0.3,0.1c-0.1,0.1-0.2,0.2-0.3,0.2c-0.1,0.1-0.2,0.2-0.2,0.3c-0.1,0.2-0.3,0.3-0.4,0.5c-0.1,0.1-0.2,0.2-0.2,0.3
		c-0.1,0.1-0.1,0.1-0.2,0.2c-0.1,0.1-0.1,0.1-0.2,0.2c-0.1,0.1-0.2,0.1-0.3,0.2c-0.1,0-0.2,0.1-0.3,0.1c-0.1,0-0.2,0-0.3,0
		c-0.1,0-0.2,0-0.2-0.1c-0.2-0.1-0.4-0.2-0.6-0.3c-0.2-0.1-0.3-0.3-0.5-0.5c-0.1-0.2-0.2-0.5-0.2-0.7c0-0.3,0-0.6,0.1-1
		c0.1-0.3,0.2-0.5,0.3-0.7c0.1-0.2,0.3-0.4,0.5-0.6c0.2,0.1,0.3,0.2,0.5,0.3c0.1,0.1,0.2,0.1,0.3,0.1l0,0.1c-0.3,0-0.5,0.2-0.7,0.3
		s-0.4,0.4-0.5,0.7c-0.1,0.2-0.1,0.4-0.1,0.6c0,0.2,0.1,0.3,0.1,0.4c0.1,0.1,0.2,0.2,0.3,0.3c0.1,0.1,0.2,0.1,0.4,0.2
		c0.2,0,0.3,0.1,0.4,0c0.1,0,0.3-0.1,0.4-0.1c0.1-0.1,0.2-0.1,0.3-0.3c0.1-0.1,0.2-0.2,0.3-0.3c0.2-0.2,0.3-0.4,0.4-0.5
		c0.1-0.1,0.2-0.2,0.2-0.3c0.1-0.1,0.1-0.1,0.2-0.2c0,0,0.1-0.1,0.2-0.1c0.2-0.1,0.3-0.2,0.5-0.2c0.2,0,0.4,0,0.6,0.1
		c0.3,0.1,0.5,0.2,0.6,0.3c0.2,0.2,0.3,0.3,0.4,0.5c0.1,0.2,0.1,0.4,0.1,0.7c0,0.2,0,0.5-0.1,0.7c0,0.2-0.1,0.3-0.2,0.4
		c-0.1,0.1-0.1,0.3-0.2,0.4c-0.1,0.1-0.1,0.2-0.2,0.3c-0.1,0.1-0.1,0.1-0.2,0.2c0,0-0.1-0.1-0.1-0.1c0,0-0.1-0.1-0.2-0.1
		c-0.1,0-0.1-0.1-0.2-0.1c-0.1,0-0.1-0.1-0.2-0.1L163.9,92.9L163.9,92.9L163.9,92.9z"/>
	<path fill="#AC8643" d="M161.6,98.1c-0.2-0.1-0.4-0.2-0.5-0.4c-0.1-0.2-0.2-0.3-0.2-0.5c0-0.2-0.1-0.3,0-0.5c0-0.1,0-0.3,0-0.3
		c0-0.1,0-0.1,0-0.1c0,0,0,0,0,0c0,0,0,0,0,0c0,0,0,0.1-0.1,0.1c-0.1,0.2-0.3,0.4-0.4,0.6c-0.2,0.1-0.3,0.2-0.5,0.3
		c-0.2,0.1-0.3,0.1-0.5,0.1s-0.3,0-0.5-0.1c-0.1,0-0.2-0.1-0.3-0.2s-0.2-0.2-0.3-0.3c-0.1-0.1-0.2-0.2-0.2-0.4
		c-0.1-0.1-0.1-0.3-0.1-0.5c0-0.2,0-0.4,0-0.6c0.1-0.2,0.1-0.5,0.2-0.7c0,0,0-0.1,0.1-0.2c0-0.1,0.1-0.2,0.1-0.3
		c0-0.1,0.1-0.2,0.1-0.3c0-0.1,0.1-0.1,0.1-0.2c0-0.1,0.1-0.2,0.1-0.3c0-0.1,0.1-0.2,0.1-0.4c0.2,0.1,0.4,0.2,0.5,0.3
		c0.1,0.1,0.3,0.1,0.5,0.2c0.2,0.1,0.3,0.2,0.5,0.2c0.2,0.1,0.4,0.2,0.7,0.3c0.5,0.2,1,0.4,1.5,0.6c0.5,0.2,1,0.4,1.5,0.6
		c-0.1,0.1-0.1,0.3-0.2,0.4c-0.1,0.1-0.1,0.3-0.2,0.4c-0.1,0.3-0.2,0.5-0.3,0.7c-0.1,0.2-0.2,0.4-0.3,0.5c-0.1,0.2-0.2,0.3-0.2,0.4
		c-0.1,0.1-0.2,0.2-0.3,0.2c-0.2,0.1-0.4,0.2-0.6,0.2C162,98.2,161.8,98.2,161.6,98.1L161.6,98.1L161.6,98.1z M159.3,96.4
		c0.3,0.1,0.5,0.1,0.7,0.1c0.2-0.1,0.4-0.1,0.5-0.3c0.1-0.1,0.2-0.3,0.3-0.4c0.1-0.2,0.1-0.3,0.2-0.4c0-0.1,0.1-0.1,0.1-0.2
		c0-0.1,0.1-0.2,0.1-0.3c-0.2-0.1-0.4-0.2-0.6-0.3c-0.2-0.1-0.4-0.2-0.6-0.2c-0.4-0.2-0.8-0.3-1.1-0.4c0,0.1-0.1,0.1-0.1,0.2
		c0,0.1-0.1,0.1-0.1,0.2c0,0.1-0.1,0.1-0.1,0.2c0,0.1-0.1,0.2-0.1,0.3c0,0.1-0.1,0.2-0.1,0.3c0,0.1,0,0.2,0,0.3c0,0.1,0,0.3,0.1,0.4
		c0.1,0.1,0.1,0.2,0.2,0.3c0.1,0.1,0.2,0.1,0.2,0.2C159.1,96.4,159.2,96.4,159.3,96.4L159.3,96.4L159.3,96.4z M161.8,97.3
		c0.2,0.1,0.3,0.1,0.5,0.1c0.2,0,0.3-0.1,0.4-0.1c0.1-0.1,0.2-0.2,0.3-0.3c0.1-0.1,0.2-0.3,0.2-0.4c0-0.1,0.1-0.2,0.1-0.3
		c0-0.1,0.1-0.2,0.1-0.3c-0.3-0.1-0.6-0.3-1-0.4c-0.2-0.1-0.3-0.1-0.5-0.2s-0.3-0.1-0.5-0.2c-0.1,0.1-0.1,0.2-0.1,0.3
		c0,0.1-0.1,0.2-0.1,0.2c0,0.1,0,0.1-0.1,0.2c0,0.1,0,0.1,0,0.2c-0.1,0.3,0,0.5,0.1,0.8C161.4,97,161.6,97.2,161.8,97.3L161.8,97.3
		L161.8,97.3z"/>
	<path fill="#AC8643" d="M159,98.7c0.3,0.2,0.6,0.3,0.8,0.5c0.2,0.1,0.4,0.2,0.6,0.3c0.2,0.1,0.3,0.2,0.4,0.3
		c0.1,0.1,0.2,0.1,0.4,0.2c0.1,0.1,0.2,0.1,0.4,0.2c0.1,0.1,0.3,0.1,0.4,0.2c-0.1,0.1-0.1,0.1-0.2,0.2c0,0.1-0.1,0.1-0.1,0.2
		c0,0.1-0.1,0.2-0.1,0.2c0,0.1-0.1,0.1-0.1,0.2c-0.2-0.2-0.5-0.3-0.7-0.5c-0.3-0.2-0.5-0.3-0.8-0.5c-0.2-0.1-0.4-0.3-0.6-0.4
		c-0.2-0.1-0.3-0.2-0.3-0.2c-0.2-0.1-0.4-0.2-0.6-0.3c-0.2-0.1-0.4-0.2-0.5-0.2c-0.2-0.1-0.3-0.1-0.4-0.1c-0.1,0-0.3,0-0.4,0
		c-0.2,0-0.4,0.1-0.6,0.3c-0.2,0.2-0.4,0.4-0.5,0.6c0,0-0.1,0.1-0.1,0.3c-0.1,0.1-0.1,0.3-0.1,0.5c0,0.2,0,0.4,0.1,0.6
		c0.1,0.2,0.2,0.4,0.4,0.6c0.1,0.1,0.2,0.2,0.4,0.3c0.1,0.1,0.3,0.2,0.4,0.3c0.1,0.1,0.3,0.2,0.4,0.2c0.1,0.1,0.2,0.1,0.2,0.1
		c0.1,0,0.2,0.1,0.4,0.2c0.2,0.1,0.4,0.2,0.6,0.3c0.2,0.1,0.5,0.2,0.7,0.4c0.2,0.1,0.4,0.2,0.5,0.2c0,0-0.1,0.1-0.1,0.1
		c0,0-0.1,0.1-0.1,0.2c0,0.1-0.1,0.1-0.1,0.2c0,0,0,0.1,0,0.1c-0.3-0.2-0.7-0.5-1.1-0.7c-0.4-0.3-0.9-0.5-1.4-0.8
		c-0.2-0.1-0.3-0.2-0.5-0.3c-0.2-0.1-0.3-0.2-0.5-0.4c-0.2-0.1-0.3-0.3-0.4-0.4c-0.1-0.2-0.2-0.3-0.3-0.5c-0.1-0.2-0.1-0.5-0.1-0.8
		c0-0.3,0.2-0.7,0.4-1.1c0.1-0.1,0.2-0.3,0.3-0.4c0.1-0.1,0.2-0.3,0.4-0.4c0.1-0.1,0.3-0.2,0.5-0.3c0.2-0.1,0.4-0.2,0.6-0.2
		c0.1,0,0.3,0,0.4,0c0.1,0,0.2,0,0.4,0.1c0.1,0,0.3,0.1,0.4,0.2C158.7,98.5,158.8,98.6,159,98.7L159,98.7L159,98.7z"/>
	<path fill="#AC8643" d="M151.3,106.1c0.1-0.1,0.1-0.1,0.2-0.2c0.1-0.1,0.1-0.1,0.2-0.2c0.1-0.1,0.1-0.1,0.2-0.2
		c0.1-0.1,0.1-0.2,0.2-0.3c0.4,0,0.7,0.1,1,0.1c0.3,0,0.6,0,0.9,0c0.3,0,0.5,0,0.8,0c0.3,0,0.5,0,0.7,0l0.1-0.2
		c-0.2-0.2-0.5-0.4-0.9-0.7c-0.4-0.3-0.8-0.6-1.4-1c0.1,0,0.1-0.1,0.2-0.2c0.1-0.1,0.1-0.1,0.2-0.2c0.1-0.1,0.1-0.2,0.1-0.2
		c0-0.1,0.1-0.1,0.1-0.2c0.4,0.3,0.8,0.6,1.2,1c0.4,0.3,0.8,0.7,1.3,1c0.3,0.2,0.6,0.5,1,0.7c0.3,0.3,0.7,0.5,1.1,0.8
		c-0.1,0.1-0.2,0.2-0.3,0.3c-0.1,0.1-0.1,0.2-0.2,0.2c0,0-0.1,0.1-0.1,0.2c-0.1,0.1-0.1,0.1-0.2,0.2c-0.1,0.1-0.1,0.2-0.2,0.2
		c-0.1,0.1-0.1,0.1-0.1,0.1c-0.2,0.2-0.3,0.4-0.4,0.5c-0.1,0.1-0.2,0.2-0.3,0.3c-0.1,0.1-0.2,0.1-0.3,0.2c-0.1,0-0.2,0.1-0.3,0.1
		c-0.2,0.1-0.4,0-0.6,0c-0.2-0.1-0.3-0.1-0.5-0.3c-0.2-0.2-0.4-0.4-0.5-0.6c-0.1-0.2-0.1-0.4-0.1-0.6c0-0.2,0.1-0.4,0.1-0.6
		c0.1-0.2,0.1-0.3,0.2-0.4c-0.1,0-0.2,0-0.4,0c-0.2,0-0.4,0-0.7,0c-0.3,0-0.5,0-0.8,0c-0.3,0-0.5,0-0.8,0c-0.2,0-0.4,0-0.6,0
		C151.5,106.1,151.4,106.1,151.3,106.1L151.3,106.1L151.3,106.1L151.3,106.1z M155.5,107.6c0.2,0.1,0.4,0.2,0.5,0.2
		c0.2,0,0.3,0,0.5-0.1c0.1-0.1,0.3-0.2,0.4-0.3s0.2-0.2,0.3-0.4c0.1-0.1,0.1-0.2,0.2-0.3c0-0.1,0.1-0.1,0.1-0.2
		c-0.1-0.1-0.3-0.2-0.4-0.4c-0.1-0.1-0.3-0.2-0.4-0.3c-0.1-0.1-0.2-0.1-0.2-0.2c-0.1-0.1-0.2-0.1-0.3-0.2c-0.1-0.1-0.2-0.1-0.2-0.2
		c-0.1-0.1-0.1-0.1-0.2-0.1c-0.1,0.1-0.1,0.1-0.1,0.2c0,0-0.1,0.1-0.1,0.2c-0.1,0.1-0.1,0.2-0.2,0.3c-0.1,0.1-0.2,0.3-0.2,0.5
		c0,0.2,0,0.4,0,0.6C155.1,107.2,155.3,107.4,155.5,107.6L155.5,107.6L155.5,107.6z"/>
	<path fill="#AC8643" d="M150.7,113c0.1,0,0.2,0,0.3,0.1c0.1,0,0.3,0,0.5,0c0.2,0,0.4-0.1,0.6-0.2c0.2-0.1,0.4-0.3,0.6-0.5
		c0.2-0.2,0.4-0.5,0.5-0.7c0.1-0.3,0.2-0.6,0.2-0.9c0-0.3-0.1-0.6-0.2-0.9c-0.1-0.3-0.4-0.6-0.7-0.9c-0.3-0.3-0.6-0.5-1-0.7
		c-0.3-0.1-0.6-0.2-1-0.2c-0.3,0-0.6,0.1-0.9,0.2c-0.3,0.1-0.5,0.3-0.7,0.5c0,0-0.1,0.1-0.1,0.1c-0.1,0.1-0.1,0.1-0.2,0.2
		c-0.1,0.1-0.1,0.2-0.2,0.3c-0.1,0.1-0.1,0.3-0.1,0.4c0.2,0.2,0.4,0.4,0.6,0.6c0.1,0.1,0.3,0.3,0.4,0.4c0.1,0.1,0.2,0.2,0.3,0.2
		c0.1,0.1,0.2,0.1,0.3,0.2c-0.1,0-0.1,0.1-0.2,0.1c-0.1,0-0.1,0.1-0.2,0.2c-0.1,0.1-0.1,0.1-0.2,0.2c0,0.1-0.1,0.1-0.1,0.2
		c-0.2-0.2-0.3-0.4-0.5-0.6c-0.2-0.2-0.4-0.4-0.6-0.6c-0.1-0.1-0.1-0.1-0.2-0.2c-0.1-0.1-0.2-0.1-0.2-0.2c0.1-0.2,0.2-0.4,0.3-0.5
		c0.1-0.2,0.2-0.3,0.3-0.5s0.2-0.3,0.3-0.5c0.1-0.2,0.3-0.3,0.4-0.5c0.3-0.3,0.7-0.6,1-0.7c0.4-0.2,0.7-0.3,1.1-0.3
		c0.4,0,0.8,0.1,1.1,0.2s0.7,0.4,1,0.7c0.3,0.3,0.5,0.6,0.7,0.9c0.2,0.3,0.2,0.7,0.2,1.1c0,0.4-0.1,0.8-0.3,1.2
		c-0.2,0.4-0.5,0.8-0.8,1.2c-0.3,0.3-0.6,0.5-0.9,0.8c-0.3,0.2-0.7,0.4-1,0.5c-0.1-0.2-0.1-0.4-0.2-0.5
		C150.8,113.2,150.7,113.1,150.7,113L150.7,113L150.7,113L150.7,113z"/>
	<path fill="#AC8643" d="M146.4,116.2c-0.2,0.1-0.3,0.2-0.5,0.2c-0.2,0-0.4,0-0.5,0c-0.2,0-0.3-0.1-0.5-0.2
		c-0.2-0.1-0.3-0.2-0.4-0.4c-0.1-0.2-0.2-0.3-0.2-0.5c0-0.2,0-0.4,0-0.5c0-0.2,0.1-0.3,0.2-0.5c0.1-0.2,0.2-0.3,0.4-0.4
		c0.2-0.1,0.3-0.2,0.5-0.2c0.2,0,0.4,0,0.5,0c0.2,0,0.3,0.1,0.5,0.2c0.2,0.1,0.3,0.2,0.4,0.4c0.1,0.2,0.2,0.3,0.2,0.5
		c0,0.2,0,0.4,0,0.5c0,0.2-0.1,0.3-0.2,0.5C146.6,116,146.5,116.1,146.4,116.2L146.4,116.2L146.4,116.2z"/>
	<path fill="#AC8643" d="M106.4,118.1l-0.2,0.3c0,0-0.1,0.2-0.1,0.3c-0.5-0.3-1.1-0.6-1.7-0.8l-0.7,1.7l0.8,0.3
		c0.3,0.1,0.6,0.2,1,0.3c-0.1,0.2-0.2,0.3-0.2,0.3c0,0.1-0.1,0.2-0.1,0.4c-0.2-0.1-0.3-0.2-0.5-0.3c-0.2-0.1-0.3-0.1-0.5-0.2
		l-0.8-0.3l-0.8,2c0.4,0.1,0.7,0.3,1,0.4c0.3,0.1,0.6,0.2,0.9,0.3l-0.2,0.3c0,0-0.1,0.2-0.1,0.3l-2.9-1.2l2.2-5.3L106.4,118.1
		L106.4,118.1L106.4,118.1z"/>
	<path fill="#AC8643" d="M108.2,124.7l-0.6-0.2c-0.1,0-0.2,0-0.3-0.1c-0.1,0-0.2,0-0.3-0.1l1.3-5c-0.4-0.1-0.9-0.2-1.5-0.3
		c0.1-0.2,0.1-0.3,0.1-0.3c0,0,0-0.2,0.1-0.4l4.2,1.1c-0.1,0.2-0.1,0.3-0.1,0.3c0,0,0,0.2-0.1,0.4c-0.6-0.2-1.1-0.4-1.4-0.5
		L108.2,124.7L108.2,124.7L108.2,124.7z"/>
	<path fill="#AC8643" d="M111.9,119.6c0.1,0,0.2,0,0.3,0.1c0.1,0,0.2,0,0.3,0.1c0.1,0,0.2,0,0.3,0c0.1,0,0.2,0,0.3,0l-0.3,2.4
		c-0.1,0.8-0.1,1.3-0.1,1.6c0,0.3,0,0.5,0.1,0.6c0,0.1,0.1,0.3,0.2,0.4c0.2,0.3,0.5,0.4,0.9,0.5c0.3,0,0.5,0,0.7,0
		c0.2,0,0.4-0.1,0.5-0.3c0.1-0.1,0.3-0.3,0.4-0.5c0.1-0.2,0.3-0.8,0.4-1.7l0.3-2.5c0.1,0,0.2,0.1,0.3,0.1c0.1,0,0.2,0,0.3,0l-0.4,3
		c0,0.2,0,0.4-0.1,0.5c0,0.1-0.1,0.3-0.1,0.5c-0.1,0.2-0.2,0.4-0.3,0.7c-0.2,0.2-0.4,0.4-0.7,0.6c-0.4,0.2-1,0.3-1.6,0.2
		c-0.4,0-0.7-0.1-1-0.3c-0.3-0.1-0.6-0.3-0.8-0.6c-0.2-0.2-0.4-0.5-0.4-0.9c0-0.3,0-0.7,0-1L111.9,119.6L111.9,119.6L111.9,119.6z"
		/>
	<path fill="#AC8643" d="M125.5,125.1c0.1,0,0.2,0,0.5-0.1c0.2,0,0.4-0.1,0.5-0.1c0.1,0,0.3,0,0.4-0.1c0.2,0,0.3-0.1,0.5-0.1l0,0.4
		c0,0.1,0,0.2,0.1,0.4l-3.2,0.4l-0.7-5.7c0.1,0,0.2,0,0.3,0c0.1,0,0.2,0,0.3,0c0.1,0,0.2,0,0.3-0.1c0.1,0,0.2,0,0.3-0.1L125.5,125.1
		L125.5,125.1L125.5,125.1z"/>
	<path fill="#AC8643" d="M130.8,118.9l0,0.4c0,0.1,0.1,0.2,0.1,0.3c-0.6,0.1-1.2,0.2-1.9,0.3l0.4,1.8l0.9-0.2c0.3-0.1,0.7-0.2,1-0.3
		c0,0.2,0,0.3,0,0.4c0,0.1,0.1,0.2,0.1,0.3c-0.2,0-0.4,0-0.5,0.1c-0.2,0-0.3,0.1-0.5,0.1l-0.9,0.2l0.5,2.1c0.4-0.1,0.7-0.2,1-0.3
		c0.3-0.1,0.6-0.2,0.9-0.3l0,0.4c0,0.1,0.1,0.2,0.1,0.3l-3.1,0.7l-1.3-5.6L130.8,118.9L130.8,118.9L130.8,118.9z"/>
	<path fill="#AC8643" d="M135.7,123.4l-0.6,0.2c-0.1,0-0.2,0.1-0.3,0.1c-0.1,0-0.2,0.1-0.3,0.1l-1.7-4.9c-0.4,0.1-0.9,0.3-1.4,0.6
		c0-0.2-0.1-0.3-0.1-0.4c0,0-0.1-0.2-0.2-0.3l4.1-1.4c0,0.2,0.1,0.3,0.1,0.3c0,0,0.1,0.2,0.2,0.3c-0.7,0.1-1.1,0.3-1.5,0.4
		L135.7,123.4L135.7,123.4L135.7,123.4z"/>
	<path fill="#AC8643" d="M136,117.1c0.1,0,0.2-0.1,0.3-0.1c0.1,0,0.2-0.1,0.3-0.1c0.1,0,0.2-0.1,0.3-0.2c0.1-0.1,0.2-0.1,0.3-0.1
		l2.3,5.3l-0.6,0.2c-0.1,0-0.2,0.1-0.3,0.2c-0.1,0.1-0.2,0.1-0.3,0.1L136,117.1L136,117.1L136,117.1z"/>
	<path fill="#AC8643" d="M121,120.6l0.8-0.1l-0.4,1.7l-0.6,0.1L121,120.6L121,120.6L121,120.6z M122.3,120.4l0.8-0.1l-0.5,1.7
		l-0.7,0.1L122.3,120.4L122.3,120.4L122.3,120.4z"/>
	<path fill="#AC8643" d="M138.4,116.2l0.7-0.3l0.2,1.7l-0.6,0.3L138.4,116.2L138.4,116.2L138.4,116.2z M139.6,115.6l0.7-0.3l0.1,1.8
		l-0.6,0.3L139.6,115.6L139.6,115.6L139.6,115.6z"/>
</g>
</svg>
